<svg width="272" height="47" viewBox="0 0 272 47" fill="none" xmlns="http://www.w3.org/2000/svg">
<path d="M22.341 46.3698C22.1645 46.3698 21.9627 46.3446 21.7861 46.3194C21.2817 46.269 20.7773 46.269 20.2981 46.1933C19.5162 46.0672 18.7091 45.916 17.9272 45.7647C17.4984 45.689 17.0697 45.5629 16.6409 45.4369C15.6068 45.1343 14.5979 44.7561 13.6143 44.3022C12.6811 43.8735 11.7731 43.3945 10.9156 42.8397C10.2346 42.4111 9.57882 41.932 8.92306 41.4529C8.41862 41.0747 7.96463 40.6712 7.51064 40.2678C6.93054 39.7131 6.37566 39.1584 5.87123 38.5784C5.3668 37.9985 4.9128 37.3933 4.43359 36.7881C3.70216 35.83 3.09684 34.7962 2.54196 33.7119C2.13841 32.9051 1.76009 32.073 1.45743 31.2157C1.23043 30.5096 0.978215 29.8036 0.801663 29.0976C0.625111 28.4672 0.499002 27.8116 0.372893 27.156C0.272006 26.5761 0.196341 25.9962 0.120676 25.4162C0.0197892 24.3824 -0.0306542 23.3234 0.0197892 22.2643C0.0450109 21.6592 0.0702327 21.054 0.17112 20.4489C0.272007 19.6168 0.423337 18.8099 0.599889 18.003C0.700776 17.4987 0.852106 16.9944 1.00344 16.5153C1.38176 15.2546 1.83575 14.0443 2.44108 12.8844C2.56718 12.6322 2.69329 12.3801 2.8194 12.1279C2.86984 12.0523 2.86984 12.0019 2.8194 11.9262C2.56718 11.5732 2.39063 11.1698 2.31497 10.7411C2.2393 10.1864 2.31497 9.65689 2.54196 9.15259C2.8194 8.54743 3.24817 8.09356 3.85349 7.79098C4.58492 7.43797 5.34157 7.41276 6.09823 7.71534C6.67833 7.94227 7.13232 8.3205 7.4602 8.85001C7.6872 9.20302 7.8133 9.58124 7.83853 9.98468C7.88897 10.3881 7.83853 10.7916 7.71242 11.1698C7.53586 11.6741 7.25843 12.1027 6.82966 12.4557C6.42611 12.7835 5.97212 12.9853 5.44246 13.0609C5.1398 13.0861 4.86236 13.1113 4.58492 13.0609C4.48404 13.0609 4.45881 13.0861 4.40837 13.1618C4.25704 13.4643 4.10571 13.7417 3.95438 14.0443C3.77783 14.4477 3.57605 14.8512 3.42472 15.2798C3.17251 15.9858 2.92029 16.6919 2.69329 17.3979C2.56718 17.7509 2.49152 18.1039 2.41585 18.4821C2.31497 18.9864 2.21408 19.5159 2.13841 20.0202C2.06275 20.4489 2.01231 20.9027 1.98708 21.3314C1.93664 22.0122 1.91142 22.693 1.91142 23.3738C1.91142 23.9538 1.93664 24.5337 1.98708 25.1136C2.03753 25.6432 2.11319 26.1727 2.18886 26.7022C2.31497 27.3578 2.44108 28.0134 2.59241 28.6437C2.71851 29.1732 2.92029 29.7028 3.09684 30.2323C3.27339 30.7366 3.44994 31.2156 3.65172 31.7199C3.82827 32.1486 4.03004 32.5773 4.25704 32.9807C4.61014 33.6111 4.93803 34.2414 5.34157 34.8466C5.61901 35.3005 5.9469 35.7039 6.24956 36.1326C6.70355 36.7881 7.2332 37.3933 7.78808 37.948C8.26729 38.4523 8.77173 38.9062 9.30139 39.3853C9.90671 39.9148 10.5625 40.4191 11.2435 40.873C11.8992 41.3016 12.555 41.7051 13.236 42.0833C13.5386 42.2346 13.8413 42.3859 14.1692 42.5372C14.7745 42.7893 15.3546 43.0667 15.9599 43.2936C16.4896 43.4953 17.0445 43.6466 17.5993 43.7979C18.2047 43.9492 18.81 44.1005 19.4405 44.2013C19.8945 44.3022 20.3737 44.3526 20.8277 44.4031C21.3069 44.4535 21.7861 44.4787 22.2654 44.5039C22.795 44.5039 23.3499 44.5291 23.9048 44.5039C24.384 44.5039 24.8632 44.4535 25.3424 44.4031C25.9225 44.3274 26.5278 44.277 27.1079 44.1509C27.7385 44.0248 28.369 43.8483 28.9996 43.697C29.3779 43.5962 29.731 43.4953 30.0841 43.3692C30.5381 43.218 30.9669 43.0415 31.3956 42.8649C31.8496 42.6884 32.2784 42.4615 32.7071 42.2598C33.4386 41.9068 34.1196 41.5286 34.8006 41.0747C35.2293 40.7721 35.6581 40.4947 36.0616 40.1922C36.0869 40.1922 36.1121 40.1417 36.1625 40.1165C34.1448 38.0993 32.127 36.0821 30.0841 34.0397C30.2606 33.9389 30.412 33.8632 30.5633 33.7876C31.2695 33.4346 31.9001 32.9555 32.4297 32.3755C33.0855 31.6443 33.5142 30.8122 33.7412 29.8793C33.943 29.0472 33.9935 28.2151 33.9178 27.383C33.8421 26.45 33.5899 25.5423 33.1107 24.7354C32.6063 23.8781 31.9001 23.2225 31.0173 22.7686C30.5885 22.5669 30.1598 22.3904 29.731 22.1887C29.731 22.1887 29.8067 22.1383 29.8571 22.1131C30.5633 21.7853 31.1686 21.3314 31.6731 20.7262C32.1271 20.1967 32.4549 19.5916 32.6567 18.936C32.8837 18.1291 32.9089 17.297 32.8333 16.4649C32.7576 15.8093 32.6063 15.179 32.3288 14.599C32.1271 14.1451 31.8244 13.7669 31.4965 13.3887C30.9416 12.8088 30.2859 12.4305 29.5544 12.1532C29.1004 11.9767 28.6212 11.8758 28.142 11.7749C27.7637 11.6993 27.3601 11.6489 26.9566 11.6237C26.4017 11.5732 25.8721 11.548 25.3172 11.548C22.9463 11.548 20.6007 11.548 18.2299 11.548C18.129 11.548 18.0533 11.5228 17.9777 11.4471C17.4732 10.9428 16.994 10.4385 16.4896 9.95947C16.4139 9.88382 16.3382 9.80818 16.2626 9.73253C16.2626 9.73253 16.2626 9.73253 16.2626 9.70732C16.313 9.70732 16.3382 9.70732 16.3887 9.70732C19.1631 9.70732 21.9375 9.70732 24.7119 9.70732C25.2415 9.70732 25.7964 9.70732 26.3261 9.70732C26.7548 9.70732 27.1836 9.78296 27.5871 9.83339C28.2177 9.88382 28.8482 10.0099 29.4535 10.1864C29.8067 10.2873 30.1598 10.4133 30.4876 10.5646C30.8407 10.7159 31.1686 10.8924 31.4965 11.0689C31.9001 11.2959 32.2784 11.5732 32.6063 11.901C33.1359 12.3801 33.5395 12.9348 33.8673 13.5904C34.1448 14.1199 34.3213 14.6747 34.4727 15.2546C34.6744 16.0867 34.7249 16.944 34.6997 17.8013C34.6492 19.0621 34.2961 20.2472 33.6151 21.3062C33.489 21.5079 33.3377 21.6844 33.1864 21.8861C33.1359 21.9366 33.1359 21.987 33.1864 22.0374C33.4386 22.2896 33.716 22.5165 33.943 22.7686C34.1448 22.9956 34.3213 23.2477 34.4979 23.4999C34.8762 24.0546 35.1537 24.6598 35.3807 25.2901C35.5824 25.8953 35.7085 26.5257 35.759 27.156C35.8094 27.7864 35.8346 28.442 35.759 29.0724C35.6833 29.8036 35.532 30.5096 35.2798 31.1904C34.9771 32.0225 34.5231 32.8042 33.943 33.485C33.6908 33.7876 33.4134 34.0649 33.1107 34.3423C33.035 34.4179 33.0098 34.4684 33.1107 34.544C34.5483 35.9813 35.986 37.4437 37.4488 38.881C37.928 39.3601 38.4325 39.8392 38.9369 40.3182C38.7604 40.4695 38.609 40.6208 38.4577 40.7469C37.8272 41.3016 37.1714 41.8059 36.4904 42.285C35.6581 42.8649 34.8006 43.3945 33.8926 43.8483C33.262 44.1761 32.6063 44.4787 31.9505 44.7561C31.2695 45.0334 30.5885 45.2604 29.9075 45.4621C29.2518 45.6638 28.5708 45.8403 27.8898 45.9916C27.4358 46.0925 26.9818 46.1429 26.5278 46.2185C26.0991 46.2942 25.6451 46.3446 25.2163 46.395C25.0397 46.395 24.8632 46.395 24.6614 46.4202C24.4596 46.4202 24.2579 46.4455 24.0309 46.4707H22.2654L22.341 46.3698ZM5.99734 10.3125C5.99734 9.78296 5.61901 9.37952 5.08936 9.37952C4.58492 9.37952 4.18137 9.78296 4.15615 10.262C4.15615 10.842 4.5597 11.2202 5.06414 11.2202C5.54335 11.2202 5.97212 10.842 5.97212 10.3125H5.99734Z" fill="#02B1DA"/>
<path d="M46.4271 23.7777C46.4271 24.0046 46.4018 24.2568 46.3766 24.4837C46.3262 25.0384 46.3009 25.5931 46.2253 26.1479C46.1244 26.8539 45.9983 27.5347 45.8722 28.2407C45.7461 28.7954 45.62 29.3754 45.4434 29.9301C45.1912 30.737 44.9138 31.5439 44.5606 32.3255C44.258 32.9811 43.9301 33.6367 43.6274 34.2671C43.6274 34.3175 43.6274 34.3932 43.6274 34.4436C43.7031 34.6201 43.804 34.7714 43.9049 34.9227C44.0562 35.2253 44.1319 35.5278 44.1571 35.8556C44.2075 36.4356 44.1067 36.9651 43.804 37.4694C43.5013 37.9989 43.0726 38.3771 42.5177 38.6293C41.988 38.8814 41.4584 38.9066 40.9035 38.831C40.5252 38.7806 40.1721 38.6293 39.8442 38.4275C39.365 38.125 39.0371 37.6963 38.8101 37.192C38.5831 36.6625 38.5327 36.1078 38.6335 35.5278C38.7092 35.074 38.911 34.6705 39.2136 34.3427C39.365 34.1662 39.5415 33.9645 39.7433 33.8132C39.9451 33.6619 40.1973 33.5611 40.4495 33.4602C40.8531 33.3089 41.2566 33.2585 41.6854 33.3341C41.6854 33.3341 41.7358 33.3341 41.761 33.3341C41.9628 33.4098 42.0385 33.2837 42.1141 33.1072C42.3411 32.6281 42.5934 32.1238 42.8204 31.6447C42.9969 31.2413 43.1735 30.8126 43.3248 30.4092C43.5266 29.8293 43.7031 29.2745 43.8544 28.6694C43.9806 28.1903 44.0814 27.7112 44.1823 27.2069C44.2832 26.7026 44.3589 26.1983 44.4093 25.6688C44.4598 25.1393 44.5102 24.5846 44.5354 24.055C44.5354 23.5507 44.5859 23.0464 44.5354 22.5421C44.5354 21.937 44.4598 21.357 44.3841 20.7519C44.3337 20.2728 44.258 19.7685 44.1823 19.2894C44.1067 18.886 44.031 18.4573 43.9049 18.0539C43.7536 17.4739 43.577 16.8688 43.3752 16.2888C43.1735 15.7089 42.9465 15.129 42.6942 14.549C42.4672 13.9943 42.1898 13.4648 41.9124 12.9353C41.6349 12.4057 41.307 11.9267 40.9792 11.4224C40.8026 11.1198 40.6008 10.8424 40.3991 10.5651C39.9199 9.9599 39.4406 9.35474 38.911 8.77479C38.5831 8.39657 38.23 8.06878 37.8769 7.74098C37.549 7.4384 37.1959 7.11061 36.868 6.83324C36.641 6.63153 36.3636 6.45502 36.1366 6.2533C35.8087 6.00115 35.4808 5.749 35.1277 5.52207C34.699 5.21949 34.245 4.96734 33.791 4.68998C33.564 4.5639 33.3622 4.43783 33.1352 4.31175C32.8325 4.16046 32.5299 4.00917 32.2272 3.8831C31.8237 3.70659 31.3949 3.50487 30.9914 3.35359C30.6635 3.22751 30.3356 3.10144 29.9825 2.97536C29.6798 2.8745 29.3772 2.79886 29.0493 2.698C28.7466 2.59714 28.4187 2.52149 28.1161 2.44585C27.9395 2.39542 27.7378 2.3702 27.5612 2.31977C27.309 2.26934 27.0316 2.21891 26.7793 2.16848C26.3758 2.11805 25.947 2.04241 25.5182 2.01719C25.039 1.96676 24.585 1.94155 24.1058 1.91633C23.6771 1.91633 23.2483 1.89112 22.8195 1.91633C22.3403 1.91633 21.8359 1.96676 21.3567 1.99198C20.9279 2.04241 20.4739 2.06762 20.0451 2.14327C19.4398 2.24413 18.8093 2.3702 18.2039 2.52149C17.7752 2.62235 17.3464 2.72321 16.9429 2.84929C16.6906 2.92493 16.4636 3.02579 16.2367 3.10144C16.0097 3.17708 15.7827 3.25273 15.5557 3.32837C15.2278 3.45444 14.9251 3.60573 14.6225 3.73181C14.345 3.85788 14.0676 3.95874 13.7901 4.11003C13.4875 4.26132 13.1848 4.41261 12.9074 4.58912C12.5291 4.79084 12.1507 5.01777 11.7976 5.2447C11.3941 5.52207 10.9905 5.79943 10.587 6.0768C10.5113 6.12723 10.4357 6.20287 10.36 6.2533C10.3095 6.30373 10.3095 6.32895 10.36 6.37938C10.7131 6.73238 11.0662 7.11061 11.4445 7.46362C11.7724 7.79141 12.1003 8.11921 12.4282 8.447C12.8569 8.87565 13.2857 9.27909 13.7145 9.70775C14.1432 10.1364 14.572 10.5651 15.0008 10.9937C15.1521 11.145 15.3287 11.2963 15.48 11.4476C15.48 11.4476 15.5052 11.498 15.5304 11.5484C15.48 11.5484 15.4296 11.5484 15.3791 11.5484C15.1521 11.5484 14.8999 11.5484 14.6729 11.5484C14.572 11.5484 14.5216 11.5737 14.5216 11.6997C14.5216 12.4814 14.5216 13.2378 14.5216 14.0195C14.5216 20.8023 14.5216 27.5599 14.5216 34.3427C14.5216 34.4688 14.5216 34.5949 14.5216 34.7462C14.5216 34.8722 14.572 34.8975 14.6729 34.8975C18.5823 34.8975 22.4664 34.8975 26.3758 34.8975C26.8802 34.8975 27.4099 34.7966 27.9143 34.721H27.9395C28.1413 34.6705 28.2926 34.721 28.4187 34.8975C28.7718 35.3009 29.1754 35.6539 29.5537 36.0321C29.6042 36.0826 29.6546 36.133 29.7303 36.2086C29.6798 36.2338 29.6546 36.2591 29.6042 36.2591C29.1502 36.3599 28.7214 36.486 28.2674 36.5616C27.8134 36.6373 27.3594 36.6877 26.9054 36.7129C26.2245 36.7381 25.5435 36.7634 24.8625 36.7634C20.8522 36.7634 16.842 36.7634 12.8569 36.7634C12.7813 36.7634 12.7056 36.7634 12.6299 36.7634C12.6299 36.7381 12.6299 36.6877 12.6299 36.6625C12.6299 28.3164 12.6299 19.945 12.6299 11.5989C12.6299 11.3467 12.5795 11.1702 12.3777 10.9937C11.9742 10.6155 11.5706 10.212 11.1671 9.80861C10.7383 9.37995 10.3095 8.9513 9.88078 8.52264C9.55289 8.19485 9.22501 7.86706 8.89713 7.53926C8.46836 7.11061 8.06481 6.70717 7.63604 6.27852C7.61082 6.2533 7.5856 6.22809 7.53516 6.17766C7.71171 6.00115 7.91348 5.84986 8.09003 5.69857C8.36747 5.44642 8.64491 5.21949 8.94757 4.99256C9.17457 4.81605 9.45201 4.63955 9.679 4.46304C9.93122 4.28654 10.1834 4.11003 10.4357 3.93353C10.6627 3.78224 10.9149 3.63095 11.1419 3.47966C11.3941 3.32837 11.6463 3.15187 11.9237 3.02579C12.3777 2.77364 12.8065 2.54671 13.2857 2.31977C13.8658 2.04241 14.4711 1.79026 15.0765 1.56333C15.707 1.33639 16.3628 1.13467 17.0185 0.932952C17.3212 0.832093 17.6491 0.756448 17.977 0.680803C18.5318 0.554728 19.0867 0.453869 19.6416 0.353009C20.146 0.277364 20.6757 0.201719 21.1801 0.15129C21.4323 0.126075 21.6845 0.126075 21.9368 0.10086C22.0629 0.0252149 22.2646 0 22.4412 0C22.9709 0 23.5005 0 24.0302 0C24.0302 0 24.0554 0 24.0806 0C24.5346 0.0252149 24.9886 0.0504298 25.4426 0.0756448C25.6948 0.0756448 25.947 0.126075 26.1992 0.15129C26.6532 0.226934 27.082 0.277364 27.536 0.378224C27.9648 0.453869 28.3935 0.529513 28.8223 0.655588C29.4024 0.806878 30.0077 0.983382 30.5878 1.1851C31.0922 1.33639 31.5967 1.5129 32.0759 1.71461C32.6308 1.94155 33.1604 2.1937 33.6901 2.47106C34.3711 2.82407 35.0521 3.17708 35.6826 3.60573C36.187 3.93353 36.7167 4.26132 37.1959 4.63955C37.7508 5.0682 38.2804 5.52207 38.8101 5.97594C39.1884 6.30373 39.5163 6.63153 39.8694 6.98453C40.2477 7.38797 40.6261 7.79141 40.9792 8.19485C41.2062 8.47221 41.4332 8.74958 41.6349 9.02694C41.8871 9.37995 42.1646 9.70775 42.3916 10.086C42.669 10.4894 42.9212 10.8928 43.1735 11.3215C43.4257 11.7502 43.6527 12.1536 43.8797 12.6075C44.1319 13.1118 44.3589 13.6161 44.5859 14.1204C44.7372 14.4482 44.8633 14.8012 44.9894 15.129C45.1408 15.5828 45.2921 16.0115 45.4434 16.4653C45.5191 16.6923 45.5947 16.9192 45.6704 17.1461C45.7461 17.3983 45.7713 17.6252 45.847 17.8774C45.9226 18.18 45.9983 18.4825 46.0487 18.7599C46.1244 19.1633 46.1748 19.5668 46.2253 19.9702C46.3009 20.6258 46.3514 21.2562 46.4271 21.9118C46.4271 22.1639 46.4523 22.4413 46.4775 22.6934V23.7777H46.4271ZM41.3827 35.1748C40.8278 35.1496 40.4495 35.6287 40.4495 36.0826C40.4495 36.5616 40.8278 36.9903 41.3575 36.9903C41.8619 36.9903 42.3159 36.5869 42.3159 36.0826C42.3159 35.6287 41.9124 35.1496 41.4079 35.1748H41.3827Z" fill="#F8A121"/>
<path d="M22.6687 30.8634C21.685 30.8634 20.6762 30.8634 19.6925 30.8634C19.5916 30.8634 19.5664 30.813 19.5664 30.7373C19.5664 30.6365 19.5664 30.5356 19.5664 30.4347C19.5664 28.468 19.5664 26.5264 19.5664 24.5597C19.5664 24.4588 19.5916 24.4336 19.6925 24.4336C21.5085 24.4336 23.3244 24.4336 25.1404 24.4336C25.6701 24.4336 26.1997 24.484 26.7294 24.6353C27.259 24.7866 27.713 25.0388 28.0914 25.4422C28.3436 25.7196 28.5201 26.0474 28.6715 26.4004C28.8984 27.0055 28.8984 27.6107 28.8732 28.2158C28.848 28.6697 28.6967 29.1236 28.4445 29.5018C28.2427 29.8044 27.9905 30.0565 27.6626 30.2582C27.2843 30.4852 26.8807 30.6113 26.4519 30.7121C26.2502 30.7625 26.0484 30.7878 25.8466 30.7878C24.7873 30.7878 23.7532 30.813 22.6939 30.8382L22.6687 30.8634ZM21.4328 28.9723C21.4328 28.9723 21.5337 28.9975 21.5841 28.9975C22.8957 28.9975 24.2072 28.9975 25.5187 28.9723C25.8971 28.9723 26.2502 28.9219 26.578 28.7201C26.8303 28.5941 26.9564 28.3923 26.9816 28.115C26.9816 27.8124 26.9816 27.4846 26.9564 27.182C26.9059 26.829 26.6789 26.6021 26.3763 26.476C26.0484 26.3247 25.6701 26.2995 25.317 26.2995C24.0811 26.2995 22.8452 26.2995 21.6094 26.2995C21.5589 26.2995 21.5085 26.2995 21.4328 26.2995V28.9471V28.9723Z" fill="#F8A121"/>
<path d="M22.4417 20.9533C21.5589 20.9533 20.6762 20.9533 19.8186 20.9533C19.6505 20.9533 19.5664 20.8692 19.5664 20.7011C19.5664 19.0117 19.5664 17.3223 19.5664 15.6329C19.5664 15.5321 19.5664 15.5068 19.6925 15.5068C21.3319 15.5068 22.9966 15.5068 24.636 15.5068C25.1909 15.5068 25.771 15.5825 26.3006 15.759C27.1834 16.0616 27.7382 16.6667 27.8644 17.5997C27.94 18.1544 27.94 18.6839 27.7635 19.2134C27.5617 19.869 27.1329 20.3229 26.5276 20.6255C26.0232 20.8776 25.4935 20.9785 24.9386 20.9785C24.1063 20.9785 23.274 20.9785 22.4417 20.9785V20.9533ZM21.4328 17.3475C21.4328 17.3475 21.4328 17.4232 21.4328 17.4484C21.4328 17.9275 21.4328 18.4066 21.4328 18.8604C21.4328 19.0117 21.5085 19.0874 21.6598 19.0874C22.5678 19.0874 23.4758 19.0874 24.3838 19.0874C24.7369 19.0874 25.09 19.0874 25.4431 19.0117C25.6701 18.9865 25.8971 18.8856 25.9727 18.6335C26.0232 18.457 26.0484 18.2805 26.0484 18.104C26.0484 17.6501 25.8718 17.4988 25.4935 17.4484C25.09 17.3727 24.6864 17.3475 24.2829 17.3475C23.4758 17.3475 22.6687 17.3475 21.8616 17.3475C21.7355 17.3475 21.5841 17.3475 21.4328 17.3475Z" fill="#02B1DA"/>
<path d="M66.4755 33.8853H59.043V12.4258H66.2746C70.78 12.4258 72.9323 14.807 72.9323 17.8194C72.9323 20.6309 71.1531 22.2088 69.0869 22.7826C71.4975 23.2129 73.4202 25.422 73.4202 28.1188C73.4202 31.332 70.9809 33.8566 66.4755 33.8566V33.8853ZM66.1024 14.2332H61.1952V21.9219H66.2172C69.1443 21.9219 70.7513 20.4588 70.7513 18.0489C70.7513 15.639 69.2304 14.2332 66.1024 14.2332ZM66.2172 23.7006H61.1665V32.0779H66.3033C69.4026 32.0779 71.2392 30.5 71.2392 27.918C71.2392 25.3359 69.2591 23.672 66.1885 23.672L66.2172 23.7006Z" fill="#02B1DA"/>
<path d="M83.8109 12.4258C88.7755 12.4258 91.1287 15.1226 91.1287 18.6513C91.1287 21.6063 89.4642 24.0736 85.8484 24.7621L91.3869 33.8853H88.8042L83.4953 24.9056H79.5351V33.8853H77.3828V12.4258H83.8396H83.8109ZM83.8109 14.2332H79.5064V23.1842H83.8396C87.3407 23.1842 88.919 21.2908 88.919 18.68C88.919 16.0693 87.4554 14.2619 83.8109 14.2619V14.2332Z" fill="#02B1DA"/>
<path d="M95.4023 12.4258H97.5546V33.8853H95.4023V12.4258Z" fill="#02B1DA"/>
<path d="M121.831 18.6797H119.305C118.1 15.9255 115.489 14.1468 112.045 14.1468C107.281 14.1468 103.637 17.5895 103.637 23.1552C103.637 28.7209 107.281 32.1923 112.045 32.1923C116.55 32.1923 119.879 29.1513 120.224 24.2741H111.184V22.524H122.491V24.102C122.146 29.7824 117.928 34.1432 112.045 34.1432C106.162 34.1432 101.398 29.639 101.398 23.1839C101.398 16.7288 106.019 12.2246 112.045 12.2246C116.665 12.2246 120.281 14.6632 121.802 18.7371L121.831 18.6797Z" fill="#02B1DA"/>
<path d="M140.225 23.8441H128.574V33.8853H126.422V12.4258H128.574V22.0654H140.225V12.4258H142.377V33.8853H140.225V23.8441Z" fill="#02B1DA"/>
<path d="M145.767 12.4258H159.857V14.2045H153.888V33.8853H151.736V14.2045H145.738V12.4258H145.767Z" fill="#02B1DA"/>
<path d="M179.112 33.8853H171.68V12.4258H178.911C183.417 12.4258 185.569 14.807 185.569 17.8194C185.569 20.6309 183.79 22.2088 181.724 22.7826C184.134 23.2129 186.057 25.422 186.057 28.1188C186.057 31.332 183.618 33.8566 179.112 33.8566V33.8853ZM178.768 14.2332H173.861V21.9219H178.883C181.81 21.9219 183.445 20.4588 183.445 18.0489C183.445 15.639 181.896 14.2332 178.797 14.2332H178.768ZM178.883 23.7006H173.832V32.0779H178.969C182.068 32.0779 183.905 30.5 183.905 27.918C183.905 25.3359 181.925 23.672 178.854 23.672L178.883 23.7006Z" fill="#02B1DA"/>
<path d="M196.471 12.4258C201.436 12.4258 203.789 15.1226 203.789 18.6513C203.789 21.6063 202.124 24.0736 198.509 24.7621L204.047 33.8853H201.464L196.155 24.9056H192.195V33.8853H190.043V12.4258H196.5H196.471ZM196.471 14.2332H192.167V23.1842H196.5C200.001 23.1842 201.579 21.2908 201.579 18.68C201.579 16.0693 200.116 14.2619 196.471 14.2619V14.2332Z" fill="#02B1DA"/>
<path d="M208.066 12.4258H210.219V33.8853H208.066V12.4258Z" fill="#02B1DA"/>
<path d="M232.801 23.2126C232.801 29.8685 228.583 33.9136 221.437 33.9136H215.066V12.4541H221.437C228.583 12.4541 232.801 16.4993 232.801 23.2413V23.2126ZM221.437 32.1062C227.521 32.1062 230.62 28.7209 230.62 23.2126C230.62 17.7042 227.521 14.2041 221.437 14.2041H217.219V32.1062H221.437Z" fill="#02B1DA"/>
<path d="M256.189 18.6797H253.663C252.458 15.9255 249.847 14.1468 246.403 14.1468C241.639 14.1468 237.995 17.5895 237.995 23.1552C237.995 28.7209 241.639 32.1923 246.403 32.1923C250.908 32.1923 254.237 29.1513 254.582 24.2741H245.542V22.524H256.849V24.102C256.504 29.7824 252.286 34.1432 246.403 34.1432C240.52 34.1432 235.785 29.639 235.785 23.1839C235.785 16.7288 240.405 12.2246 246.403 12.2246C251.023 12.2246 254.639 14.6632 256.16 18.7371L256.189 18.6797Z" fill="#02B1DA"/>
<path d="M272.002 14.1752H262.934V22.1795H271.083V23.9582H262.934V32.106H272.002V33.8847H260.781V12.3965H272.002V14.1752Z" fill="#02B1DA"/>
</svg>
