<svg width="25" height="26" viewBox="0 0 25 26" fill="none" xmlns="http://www.w3.org/2000/svg">
<path d="M18.6243 8.60401C18.6243 6.95767 17.9703 5.37876 16.8061 4.21463C15.642 3.05049 14.0631 2.39648 12.4168 2.39648C10.7704 2.39648 9.19151 3.05049 8.02737 4.21463C6.86324 5.37876 6.20923 6.95767 6.20923 8.60401C6.20923 15.8461 3.10547 17.9153 3.10547 17.9153H21.728C21.728 17.9153 18.6243 15.8461 18.6243 8.60401Z" stroke="#151515" stroke-width="2" stroke-linecap="round" stroke-linejoin="round"/>
<path d="M14.2047 22.0537C14.0228 22.3673 13.7617 22.6275 13.4476 22.8085C13.1335 22.9894 12.7773 23.0846 12.4148 23.0846C12.0523 23.0846 11.6962 22.9894 11.3821 22.8085C11.068 22.6275 10.8069 22.3673 10.625 22.0537" stroke="#151515" stroke-width="2" stroke-linecap="round" stroke-linejoin="round"/>
</svg>
