<svg width="29" height="30" viewBox="0 0 29 30" fill="none" xmlns="http://www.w3.org/2000/svg">
<path d="M6.03906 15.9175C6.03906 14.2769 6.03906 13.4566 6.3707 12.7355C6.70234 12.0145 7.32517 11.4806 8.57083 10.4129L9.77916 9.37722C12.0307 7.44735 13.1564 6.48242 14.4974 6.48242C15.8384 6.48242 16.9641 7.44735 19.2156 9.37722L20.424 10.4129C21.6696 11.4806 22.2924 12.0145 22.6241 12.7355C22.9557 13.4566 22.9557 14.2769 22.9557 15.9175V21.0413C22.9557 23.3198 22.9557 24.459 22.2479 25.1669C21.5401 25.8747 20.4009 25.8747 18.1224 25.8747H10.8724C8.59394 25.8747 7.45471 25.8747 6.74689 25.1669C6.03906 24.459 6.03906 23.3198 6.03906 21.0413V15.9175Z" stroke="#787878" stroke-width="1.885"/>
<path d="M17.5182 25.875V20.075C17.5182 19.2742 16.869 18.625 16.0682 18.625H12.9266C12.1257 18.625 11.4766 19.2742 11.4766 20.075V25.875" stroke="#787878" stroke-width="1.885" stroke-linecap="round" stroke-linejoin="round"/>
</svg>
