<svg width="46" height="46" viewBox="0 0 46 46" fill="none" xmlns="http://www.w3.org/2000/svg">
<path fill-rule="evenodd" clip-rule="evenodd" d="M30.0234 35.7157L32.8512 38.5436C33.2414 38.9338 33.8749 38.9338 34.2651 38.5436L39.9208 32.8879C40.311 32.4977 40.311 31.8642 39.9208 31.474C39.5306 31.0837 38.8971 31.0837 38.5069 31.474L33.5582 36.4227L31.4373 34.3018C31.047 33.9116 30.4136 33.9116 30.0234 34.3018C29.6331 34.6921 29.6331 35.3255 30.0234 35.7157Z" fill="#02B1DA"/>
<path fill-rule="evenodd" clip-rule="evenodd" d="M12.0036 18.1999C12.0036 17.6169 11.7716 17.0569 11.3596 16.644C10.9466 16.232 10.3867 16 9.80369 16H8.20378C7.62081 16 7.06084 16.232 6.64787 16.644C6.23589 17.0569 6.00391 17.6169 6.00391 18.1999V19.7998C6.00391 20.3828 6.23589 20.9427 6.64787 21.3557C7.06084 21.7677 7.62081 21.9997 8.20378 21.9997H9.80369C10.3867 21.9997 10.9466 21.7677 11.3596 21.3557C11.7716 20.9427 12.0036 20.3828 12.0036 19.7998V18.1999ZM10.0037 18.1999V19.7998C10.0037 19.8528 9.98267 19.9038 9.94468 19.9408C9.90768 19.9788 9.85669 19.9998 9.80369 19.9998H8.20378C8.15078 19.9998 8.09979 19.9788 8.06279 19.9408C8.0248 19.9038 8.00379 19.8528 8.00379 19.7998V18.1999C8.00379 18.1469 8.0248 18.0959 8.06279 18.0589C8.09979 18.0209 8.15078 17.9999 8.20378 17.9999H9.80369C9.85669 17.9999 9.90768 18.0209 9.94468 18.0589C9.98267 18.0959 10.0037 18.1469 10.0037 18.1999Z" fill="#02B1DA"/>
<path fill-rule="evenodd" clip-rule="evenodd" d="M12.0036 26.1989C12.0036 25.6159 11.7716 25.056 11.3596 24.643C10.9466 24.231 10.3867 23.999 9.80369 23.999H8.20378C7.62081 23.999 7.06084 24.231 6.64787 24.643C6.23589 25.056 6.00391 25.6159 6.00391 26.1989V27.7988C6.00391 28.3818 6.23589 28.9417 6.64787 29.3547C7.06084 29.7667 7.62081 29.9987 8.20378 29.9987H9.80369C10.3867 29.9987 10.9466 29.7667 11.3596 29.3547C11.7716 28.9417 12.0036 28.3818 12.0036 27.7988V26.1989ZM10.0037 26.1989V27.7988C10.0037 27.8518 9.98267 27.9028 9.94468 27.9398C9.90768 27.9778 9.85669 27.9988 9.80369 27.9988H8.20378C8.15078 27.9988 8.09979 27.9778 8.06279 27.9398C8.0248 27.9028 8.00379 27.8518 8.00379 27.7988V26.1989C8.00379 26.1459 8.0248 26.0949 8.06279 26.0579C8.09979 26.0199 8.15078 25.9989 8.20378 25.9989H9.80369C9.85669 25.9989 9.90768 26.0199 9.94468 26.0579C9.98267 26.0949 10.0037 26.1459 10.0037 26.1989Z" fill="#02B1DA"/>
<path fill-rule="evenodd" clip-rule="evenodd" d="M12.0036 34.1989C12.0036 33.6159 11.7716 33.056 11.3596 32.643C10.9466 32.231 10.3867 31.999 9.80369 31.999H8.20378C7.62081 31.999 7.06084 32.231 6.64787 32.643C6.23589 33.056 6.00391 33.6159 6.00391 34.1989V35.7988C6.00391 36.3818 6.23589 36.9417 6.64787 37.3547C7.06084 37.7667 7.62081 37.9987 8.20378 37.9987H9.80369C10.3867 37.9987 10.9466 37.7667 11.3596 37.3547C11.7716 36.9417 12.0036 36.3818 12.0036 35.7988V34.1989ZM10.0037 34.1989V35.7988C10.0037 35.8518 9.98267 35.9028 9.94468 35.9398C9.90768 35.9778 9.85669 35.9988 9.80369 35.9988H8.20378C8.15078 35.9988 8.09979 35.9778 8.06279 35.9398C8.0248 35.9028 8.00379 35.8518 8.00379 35.7988V34.1989C8.00379 34.1459 8.0248 34.0949 8.06279 34.0579C8.09979 34.0199 8.15078 33.9989 8.20378 33.9989H9.80369C9.85669 33.9989 9.90768 34.0199 9.94468 34.0579C9.98267 34.0949 10.0037 34.1459 10.0037 34.1989Z" fill="#02B1DA"/>
<path fill-rule="evenodd" clip-rule="evenodd" d="M19.9997 18.1999C19.9997 17.6169 19.7677 17.0569 19.3557 16.644C18.9427 16.232 18.3828 16 17.7998 16H16.1999C15.6169 16 15.0569 16.232 14.644 16.644C14.232 17.0569 14 17.6169 14 18.1999V19.7998C14 20.3828 14.232 20.9427 14.644 21.3557C15.0569 21.7677 15.6169 21.9997 16.1999 21.9997H17.7998C18.3828 21.9997 18.9427 21.7677 19.3557 21.3557C19.7677 20.9427 19.9997 20.3828 19.9997 19.7998V18.1999ZM17.9998 18.1999V19.7998C17.9998 19.8528 17.9788 19.9038 17.9408 19.9408C17.9038 19.9788 17.8528 19.9998 17.7998 19.9998H16.1999C16.1469 19.9998 16.0959 19.9788 16.0589 19.9408C16.0209 19.9038 15.9999 19.8528 15.9999 19.7998V18.1999C15.9999 18.1469 16.0209 18.0959 16.0589 18.0589C16.0959 18.0209 16.1469 17.9999 16.1999 17.9999H17.7998C17.8528 17.9999 17.9038 18.0209 17.9408 18.0589C17.9788 18.0959 17.9998 18.1469 17.9998 18.1999Z" fill="#02B1DA"/>
<path fill-rule="evenodd" clip-rule="evenodd" d="M19.9997 26.1989C19.9997 25.6159 19.7677 25.056 19.3557 24.643C18.9427 24.231 18.3828 23.999 17.7998 23.999H16.1999C15.6169 23.999 15.0569 24.231 14.644 24.643C14.232 25.056 14 25.6159 14 26.1989V27.7988C14 28.3818 14.232 28.9417 14.644 29.3547C15.0569 29.7667 15.6169 29.9987 16.1999 29.9987H17.7998C18.3828 29.9987 18.9427 29.7667 19.3557 29.3547C19.7677 28.9417 19.9997 28.3818 19.9997 27.7988V26.1989ZM17.9998 26.1989V27.7988C17.9998 27.8518 17.9788 27.9028 17.9408 27.9398C17.9038 27.9778 17.8528 27.9988 17.7998 27.9988H16.1999C16.1469 27.9988 16.0959 27.9778 16.0589 27.9398C16.0209 27.9028 15.9999 27.8518 15.9999 27.7988V26.1989C15.9999 26.1459 16.0209 26.0949 16.0589 26.0579C16.0959 26.0199 16.1469 25.9989 16.1999 25.9989H17.7998C17.8528 25.9989 17.9038 26.0199 17.9408 26.0579C17.9788 26.0949 17.9998 26.1459 17.9998 26.1989Z" fill="#02B1DA"/>
<path fill-rule="evenodd" clip-rule="evenodd" d="M19.9997 34.1989C19.9997 33.6159 19.7677 33.056 19.3557 32.643C18.9427 32.231 18.3828 31.999 17.7998 31.999H16.1999C15.6169 31.999 15.0569 32.231 14.644 32.643C14.232 33.056 14 33.6159 14 34.1989V35.7988C14 36.3818 14.232 36.9417 14.644 37.3547C15.0569 37.7667 15.6169 37.9987 16.1999 37.9987H17.7998C18.3828 37.9987 18.9427 37.7667 19.3557 37.3547C19.7677 36.9417 19.9997 36.3818 19.9997 35.7988V34.1989ZM17.9998 34.1989V35.7988C17.9998 35.8518 17.9788 35.9028 17.9408 35.9398C17.9038 35.9778 17.8528 35.9988 17.7998 35.9988H16.1999C16.1469 35.9988 16.0959 35.9778 16.0589 35.9398C16.0209 35.9028 15.9999 35.8518 15.9999 35.7988V34.1989C15.9999 34.1459 16.0209 34.0949 16.0589 34.0579C16.0959 34.0199 16.1469 33.9989 16.1999 33.9989H17.7998C17.8528 33.9989 17.9038 34.0199 17.9408 34.0579C17.9788 34.0949 17.9998 34.1459 17.9998 34.1989Z" fill="#02B1DA"/>
<path fill-rule="evenodd" clip-rule="evenodd" d="M27.9958 18.1999C27.9958 17.6169 27.7638 17.0569 27.3518 16.644C26.9388 16.232 26.3788 16 25.7959 16H24.196C23.613 16 23.053 16.232 22.6401 16.644C22.2281 17.0569 21.9961 17.6169 21.9961 18.1999V19.7998C21.9961 20.3828 22.2281 20.9427 22.6401 21.3557C23.053 21.7677 23.613 21.9997 24.196 21.9997H25.7959C26.3788 21.9997 26.9388 21.7677 27.3518 21.3557C27.7638 20.9427 27.9958 20.3828 27.9958 19.7998V18.1999ZM25.9959 18.1999V19.7998C25.9959 19.8528 25.9749 19.9038 25.9369 19.9408C25.8999 19.9788 25.8489 19.9998 25.7959 19.9998H24.196C24.143 19.9998 24.092 19.9788 24.055 19.9408C24.017 19.9038 23.996 19.8528 23.996 19.7998V18.1999C23.996 18.1469 24.017 18.0959 24.055 18.0589C24.092 18.0209 24.143 17.9999 24.196 17.9999H25.7959C25.8489 17.9999 25.8999 18.0209 25.9369 18.0589C25.9749 18.0959 25.9959 18.1469 25.9959 18.1999Z" fill="#02B1DA"/>
<path fill-rule="evenodd" clip-rule="evenodd" d="M36.0036 18.1999C36.0036 17.6169 35.7716 17.0569 35.3596 16.644C34.9466 16.232 34.3867 16 33.8037 16H32.2038C31.6208 16 31.0608 16.232 30.6479 16.644C30.2359 17.0569 30.0039 17.6169 30.0039 18.1999V19.7998C30.0039 20.3828 30.2359 20.9427 30.6479 21.3557C31.0608 21.7677 31.6208 21.9997 32.2038 21.9997H33.8037C34.3867 21.9997 34.9466 21.7677 35.3596 21.3557C35.7716 20.9427 36.0036 20.3828 36.0036 19.7998V18.1999ZM34.0037 18.1999V19.7998C34.0037 19.8528 33.9827 19.9038 33.9447 19.9408C33.9077 19.9788 33.8567 19.9998 33.8037 19.9998H32.2038C32.1508 19.9998 32.0998 19.9788 32.0628 19.9408C32.0248 19.9038 32.0038 19.8528 32.0038 19.7998V18.1999C32.0038 18.1469 32.0248 18.0959 32.0628 18.0589C32.0998 18.0209 32.1508 17.9999 32.2038 17.9999H33.8037C33.8567 17.9999 33.9077 18.0209 33.9447 18.0589C33.9827 18.0959 34.0037 18.1469 34.0037 18.1999Z" fill="#02B1DA"/>
<path fill-rule="evenodd" clip-rule="evenodd" d="M26.5155 41.9976H4.99971C3.67379 41.9976 2.40187 41.4706 1.46392 40.5337C0.526974 39.5957 0 38.3238 0 36.9979V8.99949C0 6.23864 2.23887 3.99977 4.99971 3.99977H7.99954V2.99983C7.99954 1.34292 9.34247 0 10.9994 0C12.6563 0 13.9992 1.34292 13.9992 2.99983V3.99977H27.9984V2.99983C27.9984 1.34292 29.3413 0 30.9982 0C32.6551 0 33.9981 1.34292 33.9981 2.99983V3.99977H36.9979C39.7587 3.99977 41.9976 6.23864 41.9976 8.99949V26.5155C44.4405 28.5344 45.9974 31.5852 45.9974 34.998C45.9974 41.0687 41.0687 45.9974 34.998 45.9974C31.5852 45.9974 28.5344 44.4405 26.5155 41.9976ZM34.998 25.9985C39.9647 25.9985 43.9975 30.0313 43.9975 34.998C43.9975 39.9647 39.9647 43.9975 34.998 43.9975C30.0313 43.9975 25.9985 39.9647 25.9985 34.998C25.9985 30.0313 30.0313 25.9985 34.998 25.9985ZM39.9977 25.1996V13.9992H1.99989V36.9979C1.99989 37.7938 2.31587 38.5568 2.87883 39.1188C3.4408 39.6817 4.20376 39.9977 4.99971 39.9977H25.1996C24.4316 38.4978 23.9986 36.7979 23.9986 34.998C23.9986 28.9273 28.9273 23.9986 34.998 23.9986C36.7979 23.9986 38.4978 24.4316 39.9977 25.1996ZM33.9981 5.99966V6.9996C33.9981 8.65651 32.6551 9.99943 30.9982 9.99943C29.3413 9.99943 27.9984 8.65651 27.9984 6.9996V5.99966H13.9992V6.9996C13.9992 8.65651 12.6563 9.99943 10.9994 9.99943C9.34247 9.99943 7.99954 8.65651 7.99954 6.9996V5.99966H4.99971C3.34281 5.99966 1.99989 7.34258 1.99989 8.99949V11.9993H39.9977V8.99949C39.9977 7.34258 38.6548 5.99966 36.9979 5.99966H33.9981ZM31.9982 2.99983V6.9996C31.9982 7.55157 31.5502 7.99954 30.9982 7.99954C30.4463 7.99954 29.9983 7.55157 29.9983 6.9996V2.99983C29.9983 2.44786 30.4463 1.99989 30.9982 1.99989C31.5502 1.99989 31.9982 2.44786 31.9982 2.99983ZM11.9993 2.99983V6.9996C11.9993 7.55157 11.5513 7.99954 10.9994 7.99954C10.4474 7.99954 9.99943 7.55157 9.99943 6.9996V2.99983C9.99943 2.44786 10.4474 1.99989 10.9994 1.99989C11.5513 1.99989 11.9993 2.44786 11.9993 2.99983Z" fill="#02B1DA"/>
</svg>
