<svg width="70" height="55" viewBox="0 0 70 55" fill="none" xmlns="http://www.w3.org/2000/svg">
<path d="M63.843 5.67634C60.638 2.47643 56.4123 0.501833 51.9016 0.0962962C47.3908 -0.309241 42.8807 0.87997 39.1564 3.4569C36.2923 1.46863 32.9436 0.292531 29.4653 0.0533346C25.9869 -0.185862 22.5087 0.52076 19.3995 2.09826C16.2902 3.67577 13.6659 6.06534 11.8047 9.01357C9.94358 11.9618 8.91502 15.3588 8.82812 18.8442H27.1292C27.4027 18.8452 27.668 18.9371 27.8835 19.1055C28.099 19.2738 28.2524 19.509 28.3195 19.7741L30.5266 28.3047L36.6517 12.4587C36.7509 12.2081 36.9287 11.9964 37.1585 11.8555C37.3882 11.7146 37.6574 11.652 37.9258 11.6772C38.1941 11.7023 38.447 11.8139 38.6466 11.995C38.8461 12.1762 38.9815 12.4172 39.0324 12.6818L41.2022 24.6966L44.0912 20.4561C44.2074 20.2912 44.3616 20.1567 44.5407 20.0639C44.7198 19.9711 44.9186 19.9228 45.1203 19.9229H50.3404C50.6692 19.9229 50.9846 20.0536 51.2171 20.2861C51.4496 20.5186 51.5803 20.834 51.5803 21.1628C51.5803 21.4917 51.4496 21.8071 51.2171 22.0396C50.9846 22.2721 50.6692 22.4028 50.3404 22.4028H45.7775L41.537 28.6023C41.3992 28.8049 41.204 28.9616 40.9764 29.0522C40.7487 29.1428 40.4992 29.1632 40.2599 29.1107C40.0186 29.0597 39.7979 28.9382 39.6257 28.7616C39.4535 28.585 39.3376 28.3613 39.2927 28.1187L37.3709 17.4679L31.4441 32.8056C31.355 33.0392 31.197 33.2402 30.9911 33.3819C30.7852 33.5236 30.541 33.5994 30.291 33.5992H30.2166C29.955 33.5812 29.7056 33.482 29.5032 33.3152C29.3009 33.1484 29.1558 32.9226 29.0883 32.6692L26.1621 21.324H8.91492C9.25509 24.8338 10.5596 28.181 12.6842 30.9953C13.238 31.7123 13.8343 32.3955 14.4697 33.0412L34.4819 53.0534C35.0941 53.6702 35.8223 54.1598 36.6246 54.4939C37.4268 54.828 38.2873 55 39.1564 55C40.0254 55 40.8859 54.828 41.6882 54.4939C42.4904 54.1598 43.2186 53.6702 43.8308 53.0534L63.843 33.0412C64.4849 32.3971 65.0815 31.7094 65.6285 30.9829C68.4362 27.26 69.8021 22.6468 69.4739 17.9953C69.1457 13.3439 67.1456 8.96821 63.843 5.67634Z" fill="#02B1DA"/>
<path d="M1.23991 18.8438C0.911067 18.8438 0.59569 18.9744 0.363162 19.2069C0.130633 19.4394 0 19.7548 0 20.0837C0 20.4125 0.130633 20.7279 0.363162 20.9604C0.59569 21.1929 0.911067 21.3236 1.23991 21.3236H8.82817C8.74356 20.4999 8.71456 19.6714 8.74138 18.8438H1.23991Z" fill="#02B1DA"/>
</svg>
