<svg width="50" height="52" viewBox="0 0 50 52" fill="none" xmlns="http://www.w3.org/2000/svg">
<path d="M49.9454 14.9514C49.2303 7.78435 44.0127 0.0478516 36.8294 0.0478516C34.5684 0.0478516 32.3081 0.817191 30.0601 2.37154C27.0572 4.48494 22.9931 4.52151 19.8896 2.33497C17.6919 0.817191 15.4316 0.0478516 13.1706 0.0478516C5.98726 0.0478516 0.769725 7.78435 0.0545923 14.9514C-0.351629 19.0253 1.58152 22.1014 3.45131 25.0769L3.87647 25.7561C5.77566 28.8073 6.3987 32.206 7.05832 35.8045C7.22617 36.7214 7.39532 37.6436 7.58733 38.5697C8.27764 41.9044 10.1128 50.7655 16.4171 51.6315C16.5653 51.6524 16.7116 51.6628 16.8547 51.6628C20.5544 51.6628 21.6758 45.8882 22.9748 39.2019C23.1413 38.3437 23.3085 37.4842 23.4803 36.6444C23.6657 35.7418 24.3867 35.4192 25 35.4192C25.6133 35.4192 26.3343 35.7418 26.5197 36.6444C26.6915 37.4829 26.8587 38.3424 27.0252 39.2006C28.3242 45.8869 29.4462 51.6615 33.1453 51.6628C33.2884 51.6628 33.4347 51.6524 33.5829 51.6315C39.8872 50.7655 41.7224 41.9044 42.4133 38.5684C42.6047 37.6436 42.7738 36.7214 42.9417 35.8045C43.6013 32.206 44.2243 28.8073 46.1229 25.7561L46.5487 25.0769C48.4185 22.1014 50.3516 19.0253 49.9454 14.9514ZM13.1229 9.41446C12.0185 9.54769 9.72816 12.3037 9.37091 15.8814C9.30169 16.571 8.72044 17.0857 8.04122 17.0857C7.99681 17.0857 7.9524 17.083 7.90734 17.0791C7.17196 17.006 6.63578 16.3503 6.70892 15.6149C7.14649 11.2366 9.99331 7.0973 12.8016 6.75769C13.5468 6.66887 14.2018 7.19135 14.29 7.92542C14.3788 8.65949 13.8563 9.32564 13.1229 9.41446Z" fill="#02B1DA"/>
</svg>
