<svg width="46" height="54" viewBox="0 0 46 54" fill="none" xmlns="http://www.w3.org/2000/svg">
<path d="M41.3407 35.4159C38.0396 33.7767 34.4124 32.6481 30.8407 31.9392C29.996 31.0475 29.4149 29.9459 29.1602 28.7532C31.3712 27.0527 33.0638 24.502 33.9911 21.4634C36.5518 21.0821 37.2176 17.2124 36.2021 15.0934C40.8651 -5.00297 5.27216 -5.04467 9.82444 15.0496C8.75584 17.1676 9.42077 21.0895 12.0111 21.4654C12.9262 24.504 14.6311 27.0548 16.842 28.7552C16.5776 30.0005 15.9599 31.1465 15.0603 32.0607C13.3697 32.3514 12.329 32.5963 12.3067 32.6202C5.38046 34.4953 -0.766022 36.6025 0.077823 44.9878C-0.273797 56.9984 46.2717 57.0096 45.9388 44.9881C46.3046 41.2048 45.0626 37.141 41.3407 35.4159ZM23.0314 1.61279C31.0663 1.50396 35.7984 6.70123 34.7564 13.7155C34.2814 13.4904 33.7108 13.4806 33.1995 13.594C32.997 12.9966 32.667 12.0388 32.1001 10.4837C32.028 10.346 31.9103 10.2213 31.8166 10.0955C24.5761 5.35758 21.5535 14.1427 15.0522 10.0696C15.0137 10.0457 14.9873 10.0238 14.953 9.99793C14.6209 9.91464 14.2488 9.96995 14.0379 10.2648C13.3649 11.5976 13.0113 13.0747 12.7886 13.5941C12.2976 13.4705 11.7588 13.4807 11.2945 13.6916C10.2522 6.68329 14.9992 1.50618 23.0314 1.61279ZM13.4203 20.3482C13.0079 19.3224 12.3236 20.0519 11.8755 19.7151C10.859 19.0356 10.6064 15.5614 11.9121 15.1969C12.5909 14.9772 13.1906 15.828 13.8273 15.3402C14.0057 15.2021 14.1249 15.0031 14.1614 14.7827C14.2222 14.5138 14.6534 13.2753 15.1251 11.995C22.5352 15.3395 24.1291 7.71565 30.6424 11.306C31.5009 13.3678 31.5196 14.4614 32.1728 15.3383C32.8074 15.8291 33.4113 14.9696 34.0884 15.1949C34.6087 15.3382 35.1007 16.3119 34.9792 17.6242C34.878 18.7174 34.4589 19.4163 34.1268 19.713C33.6446 20.0209 32.912 19.3255 32.582 20.3462C29.6292 32.145 16.3614 32.1479 13.4203 20.3482ZM18.3261 29.7289C21.226 31.3484 24.7783 31.3484 27.6782 29.7289C28.0372 30.9545 28.6843 32.0801 29.5672 33.0144C29.136 34.3506 26.0321 36.8794 23.0072 38.7252C19.9701 36.8793 16.8663 34.3445 16.4452 33.0144C17.3242 32.0786 17.9684 30.9534 18.3261 29.7289ZM1.74587 44.9877C1.12689 38.3017 4.85367 36.6437 10.5655 34.8085C10.3023 35.8813 10.0995 36.9675 9.95807 38.0621C6.41622 39.1132 6.6077 42.3185 7.164 45.2564C6.3867 46.2958 7.70055 47.711 8.82228 47.0305C9.65851 46.5816 9.62641 45.3142 8.78375 44.892C8.46916 42.739 7.87014 40.0774 10.868 39.6395C13.7086 39.516 13.7613 42.222 13.9771 44.2688C13.2487 44.888 13.5772 46.1229 14.5057 46.3428C15.7273 46.7084 16.6511 45.064 15.6435 44.2688C15.4598 41.5053 15.0216 38.423 11.6406 37.9766C11.8239 36.727 12.087 35.4901 12.4282 34.2729C12.9697 34.133 13.219 34.0525 14.9733 33.7373C16.0484 36.2163 20.523 39.1335 22.1771 40.1291V52.3513C12.4528 51.9596 1.75392 50.0034 1.74587 44.9877ZM44.2643 44.9877C44.2617 49.9935 33.5655 51.962 23.8291 52.3512V40.129C25.5096 39.1075 30.045 36.1465 31.0592 33.6655C31.8795 33.8185 32.6722 34.0187 33.4545 34.223C33.9301 35.9337 34.2525 37.6821 34.4182 39.4481C30.5462 40.8186 32.5208 46.5161 36.4376 45.2759C39.3988 44.384 39.1179 39.9013 36.0866 39.3524C35.9391 37.8101 35.6827 36.2799 35.3193 34.7726C41.0602 36.5957 44.9055 38.2628 44.2643 44.9877ZM35.4307 40.9076C37.333 40.9262 37.3378 43.7649 35.4293 43.7738C33.5196 43.7608 33.5324 40.9229 35.4348 40.9076H35.4307Z" fill="#02B1DA"/>
</svg>
