<svg width="14" height="24" viewBox="0 0 14 24" fill="none" xmlns="http://www.w3.org/2000/svg">
<path d="M12.7136 10.6899L12.4298 12.9463C12.4073 13.1284 12.3183 13.296 12.1797 13.4176C12.0411 13.5392 11.8624 13.6065 11.6772 13.6068H7.99108V23.0408C7.60133 23.0759 7.207 23.0935 6.8081 23.0935C5.93419 23.0944 5.06236 23.0091 4.20554 22.8388V13.6068H1.36382C1.23816 13.6064 1.11781 13.5566 1.02911 13.4685C0.940423 13.3803 0.890624 13.2609 0.890625 13.1365V10.3138C0.890624 10.1894 0.940423 10.07 1.02911 9.98189C1.11781 9.89374 1.23816 9.84399 1.36382 9.84354H4.20211V5.60914C4.19984 4.36414 4.69696 3.16921 5.58416 2.28712C6.47135 1.40502 7.67599 0.907973 8.93318 0.905273H12.2455C12.371 0.906169 12.491 0.956086 12.5794 1.04416C12.6679 1.13224 12.7176 1.25135 12.7179 1.37557V4.19908C12.7179 4.32337 12.6682 4.44261 12.5797 4.53074C12.4912 4.61886 12.371 4.66871 12.2455 4.66938H9.87957C9.63055 4.66994 9.38409 4.71906 9.15425 4.81394C8.92441 4.90883 8.71569 5.04761 8.54001 5.22238C8.36433 5.39714 8.22512 5.60447 8.13035 5.83251C8.03558 6.06055 7.98709 6.30484 7.98765 6.55144V9.84524H11.9609C12.0685 9.8454 12.1747 9.86816 12.2727 9.91203C12.3707 9.9559 12.4582 10.0199 12.5293 10.0997C12.6005 10.1796 12.6537 10.2735 12.6855 10.3752C12.7172 10.477 12.7268 10.5842 12.7136 10.6899Z" fill="#151515" stroke="#151515" stroke-width="1.21208"/>
</svg>
