<svg width="54" height="60" viewBox="0 0 54 60" fill="none" xmlns="http://www.w3.org/2000/svg">
<path d="M15.0054 59.9998C15.9301 59.9998 16.8768 59.9944 17.8441 59.9944H36.1557C37.1217 59.9944 38.0684 59.9998 38.9931 59.9998C47.4659 59.9998 53.94 59.5664 53.94 50.7089C53.94 41.4381 46.8499 33.8273 37.7951 33C37.7231 36.2434 27.0029 44.2475 27.0029 44.2475C27.0029 44.2475 16.2801 36.2441 16.2074 33.0007C7.15394 33.8273 0.0625 41.4381 0.0625 50.7089C0.0625 59.5664 6.53393 59.9998 15.0054 59.9998ZM35.001 47.9042C35.001 47.6402 35.2391 47.4276 35.5351 47.4276H38.4311V44.5329C38.4311 44.2395 38.6424 43.9988 38.9064 43.9988H41.7645C42.0272 43.9988 42.2398 44.2375 42.2398 44.5329V47.4282H45.1345C45.4279 47.4282 45.6679 47.6409 45.6679 47.9049V50.7616C45.6679 51.0256 45.4299 51.2383 45.1345 51.2383H42.2392V54.133C42.2392 54.4277 42.0258 54.6663 41.7625 54.6663H38.9058C38.6418 54.6663 38.4291 54.4283 38.4291 54.133V51.2376H35.5344C35.2397 51.2376 35.0004 51.0249 35.0004 50.7609L35.001 47.9042Z" fill="#02B1DA"/>
<path d="M27.0059 35.3276C35.1954 35.3276 41.8335 23.0134 41.8335 14.8246C41.8335 6.63713 35.1954 -0.000976562 27.0059 -0.000976562C18.8178 -0.000976562 12.1797 6.63713 12.1797 14.8246C12.1797 23.0134 18.8178 35.3276 27.0059 35.3276Z" fill="#02B1DA"/>
</svg>
