<svg width="46" height="63" viewBox="0 0 46 63" fill="none" xmlns="http://www.w3.org/2000/svg">
<path fill-rule="evenodd" clip-rule="evenodd" d="M22.8026 62.2102C10.2399 62.2102 0.0390625 52.0596 0.0390625 39.5974C0.0390625 33.4166 7.4259 22.2108 14.0087 12.3114C16.873 7.93959 19.6368 3.81904 21.0438 1.10551C21.3956 0.402005 22.0488 0 22.8026 0C23.5563 0 24.2598 0.452255 24.6116 1.10551C26.0186 3.91954 28.8326 8.24109 31.7974 12.7636C38.1792 22.5123 45.4153 33.5171 45.4153 39.5974C45.4656 52.0596 35.2647 62.2102 22.8026 62.2102ZM25.8176 42.4115C26.3704 42.4115 26.8226 41.9592 26.8226 41.4065V38.3914H29.8376C30.3904 38.3914 30.8427 37.9392 30.8427 37.3864V31.2056C30.8427 30.6528 30.3904 30.2006 29.8376 30.2006H26.8226V27.1856C26.8226 26.6328 26.3704 26.1805 25.8176 26.1805H19.6368C19.084 26.1805 18.6318 26.6328 18.6318 27.1856V30.2006H15.6167C15.064 30.2006 14.6117 30.6528 14.6117 31.2056V37.3864C14.6117 37.9392 15.064 38.3914 15.6167 38.3914H18.6318V41.4065C18.6318 41.9592 19.084 42.4115 19.6368 42.4115H25.8176ZM20.6418 40.4015V37.3864C20.6418 36.8337 20.1895 36.3814 19.6368 36.3814H16.6217V32.2106H19.6368C20.1895 32.2106 20.6418 31.7584 20.6418 31.2056V28.1906H24.8126V31.2056C24.8126 31.7584 25.2648 32.2106 25.8176 32.2106H28.8326V36.3814H25.8176C25.2648 36.3814 24.8126 36.8337 24.8126 37.3864V40.4015H20.6418ZM22.8026 54.6726C26.8226 54.6726 30.5914 53.1148 33.4557 50.3008C36.32 47.4365 37.928 43.6175 37.928 39.5974C37.928 39.0447 37.4255 38.5924 36.923 38.5924C36.3702 38.5924 35.8677 39.0447 35.8677 39.5974C35.8677 46.7833 30.0386 52.6626 22.8026 52.6626C22.2498 52.6626 21.7976 53.1148 21.7976 53.6676C21.7976 54.2204 22.2498 54.6726 22.8026 54.6726Z" fill="#02B1DA"/>
</svg>
