<svg width="19" height="18" viewBox="0 0 19 18" fill="none" xmlns="http://www.w3.org/2000/svg">
<path d="M14.4335 0.150391H5.19165C4.04791 0.150616 2.95108 0.600658 2.14233 1.40156C1.33358 2.20246 0.879134 3.28866 0.878906 4.4213V13.5735C0.879134 14.7062 1.33358 15.7923 2.14233 16.5932C2.95108 17.3942 4.04791 17.8442 5.19165 17.8444H14.4335C15.5772 17.8442 16.674 17.3942 17.4828 16.5932C18.2915 15.7923 18.746 14.7062 18.7462 13.5735V4.4213C18.746 3.28866 18.2915 2.20246 17.4828 1.40156C16.674 0.600658 15.5772 0.150616 14.4335 0.150391ZM17.2058 13.2696C17.2042 14.0781 16.8792 14.853 16.3019 15.4247C15.7246 15.9963 14.9421 16.3182 14.1257 16.3198H5.50025C4.68371 16.3184 3.901 15.9967 3.32354 15.425C2.74608 14.8532 2.42094 14.0782 2.41935 13.2696V4.72691C2.42071 3.91815 2.74575 3.14289 3.32323 2.57101C3.90072 1.99912 4.68356 1.67725 5.50025 1.6759H14.1257C14.9423 1.67747 15.7249 1.99945 16.3022 2.57131C16.8795 3.14317 17.2044 3.9183 17.2058 4.72691V13.2696Z" fill="#151515"/>
<path d="M9.82142 4.4209C8.90737 4.42073 8.01379 4.689 7.2537 5.19177C6.49361 5.69454 5.90116 6.40924 5.55125 7.24547C5.20134 8.08171 5.1097 9.00192 5.28791 9.88974C5.46613 10.7776 5.90621 11.5931 6.55248 12.2332C7.19875 12.8733 8.02219 13.3093 8.91867 13.4859C9.81514 13.6626 10.7444 13.572 11.5889 13.2257C12.4334 12.8793 13.1552 12.2927 13.663 11.5401C14.1708 10.7875 14.4419 9.90261 14.4419 8.99742C14.4414 7.78394 13.9545 6.62027 13.0881 5.76213C12.2218 4.90399 11.0468 4.42157 9.82142 4.4209ZM9.82142 12.0476C9.212 12.0478 8.61623 11.8689 8.10945 11.5338C7.60266 11.1986 7.20764 10.7221 6.97435 10.1645C6.74105 9.607 6.67997 8.99348 6.79882 8.40156C6.91767 7.80964 7.21112 7.26592 7.64204 6.83918C8.07296 6.41244 8.622 6.12184 9.21972 6.00414C9.81743 5.88644 10.437 5.94693 11 6.17796C11.563 6.40899 12.0441 6.80018 12.3826 7.30205C12.721 7.80392 12.9016 8.39392 12.9015 8.99742C12.8999 9.80589 12.5749 10.5808 11.9976 11.1525C11.4203 11.7242 10.6378 12.046 9.82142 12.0476Z" fill="#151515"/>
<path d="M14.7525 5.03192C15.263 5.03192 15.6768 4.62209 15.6768 4.11654C15.6768 3.611 15.263 3.20117 14.7525 3.20117C14.242 3.20117 13.8281 3.611 13.8281 4.11654C13.8281 4.62209 14.242 5.03192 14.7525 5.03192Z" fill="#151515"/>
</svg>
