<svg width="18" height="17" viewBox="0 0 18 17" fill="none" xmlns="http://www.w3.org/2000/svg">
<path d="M2.85048 4.49043C4.06231 4.49043 5.04471 3.51757 5.04471 2.31748C5.04471 1.11739 4.06231 0.144531 2.85048 0.144531C1.63864 0.144531 0.65625 1.11739 0.65625 2.31748C0.65625 3.51757 1.63864 4.49043 2.85048 4.49043Z" fill="#151515"/>
<path d="M4.5119 5.93848H1.18327C1.09284 5.93848 1.01953 6.01107 1.01953 6.10062V16.6374C1.01953 16.727 1.09284 16.7996 1.18327 16.7996H4.5119C4.60232 16.7996 4.67563 16.727 4.67563 16.6374V6.10062C4.67563 6.01107 4.60232 5.93848 4.5119 5.93848Z" fill="#151515"/>
<path d="M17.1089 9.92009V16.0722C17.1082 16.2641 17.031 16.4478 16.894 16.5835C16.757 16.7192 16.5714 16.7957 16.3777 16.7963H14.184C13.9903 16.7957 13.8047 16.7192 13.6677 16.5835C13.5308 16.4478 13.4535 16.2641 13.4528 16.0722V11.0067C13.4581 10.7657 13.4147 10.526 13.3252 10.3018C13.2357 10.0776 13.1019 9.87336 12.9316 9.70105C12.7613 9.52874 12.5581 9.39184 12.3336 9.29837C12.1092 9.2049 11.8682 9.15676 11.6248 9.15676C11.3813 9.15676 11.1403 9.2049 10.9159 9.29837C10.6915 9.39184 10.4882 9.52874 10.3179 9.70105C10.1477 9.87336 10.0138 10.0776 9.92434 10.3018C9.83484 10.526 9.79145 10.7657 9.79672 11.0067V16.0722C9.79605 16.2641 9.71879 16.4478 9.58181 16.5835C9.44483 16.7192 9.25923 16.7957 9.0655 16.7963H6.87185C6.67812 16.7957 6.49253 16.7192 6.35555 16.5835C6.21857 16.4478 6.1413 16.2641 6.14062 16.0722V6.66194C6.1413 6.47009 6.21857 6.2863 6.35555 6.15065C6.49253 6.01499 6.67812 5.93848 6.87185 5.93781H9.06893C9.26266 5.93848 9.44825 6.01499 9.58523 6.15065C9.72221 6.2863 9.79948 6.47009 9.80016 6.66194V7.12545C10.5314 6.18739 11.7418 5.57617 13.0911 5.57617C15.1056 5.57617 17.1089 7.02443 17.1089 9.92009Z" fill="#151515"/>
</svg>
