<svg width="50" height="50" viewBox="0 0 50 50" fill="none" xmlns="http://www.w3.org/2000/svg">
<path d="M33.7891 31.1523C33.2498 31.1523 32.8125 31.5896 32.8125 32.1289V38.8672C32.8125 41.5596 30.6221 43.75 27.9297 43.75H17.3859C16.8468 43.75 16.4098 44.1868 16.4094 44.7259L16.408 46.6675L14.0771 44.3367C13.9263 43.9903 13.581 43.75 13.1815 43.75H6.83594C4.14355 43.75 1.95312 41.5596 1.95312 38.8672V23.8281C1.95312 21.1357 4.14355 18.9453 6.83594 18.9453H16.6992C17.2385 18.9453 17.6758 18.5081 17.6758 17.9688C17.6758 17.4294 17.2385 16.9922 16.6992 16.9922H6.83594C3.0666 16.9922 0 20.0588 0 23.8281V38.8672C0 42.6365 3.0666 45.7031 6.83594 45.7031H12.6814L16.6923 49.714C16.8791 49.9008 17.1288 50 17.383 50C17.5087 50 17.6355 49.9757 17.7562 49.9258C18.1211 49.7748 18.3591 49.4189 18.3594 49.0241L18.3617 45.7031H27.9297C31.699 45.7031 34.7656 42.6365 34.7656 38.8672V32.1289C34.7656 31.5896 34.3283 31.1523 33.7891 31.1523Z" fill="#02B1DA"/>
<path d="M35.8062 0H33.3346C25.508 0 19.1406 6.36738 19.1406 14.1939C19.1406 22.0205 25.508 28.3878 33.3345 28.3878H35.8061C37.0276 28.3878 38.2367 28.2326 39.4086 27.926L43.0597 31.575C43.2465 31.7616 43.4961 31.8608 43.7502 31.8608C43.8761 31.8608 44.003 31.8365 44.1238 31.7864C44.4887 31.6353 44.7266 31.2792 44.7266 30.8843V25.2343C46.2724 23.9824 47.5564 22.4011 48.4576 20.6345C49.4812 18.628 50 16.4611 50 14.1939C50 6.36738 43.6326 0 35.8062 0ZM43.1624 23.978C42.9176 24.1625 42.7734 24.4514 42.7734 24.7581V28.5276L40.3837 26.1392C40.1978 25.9534 39.9483 25.8533 39.6933 25.8533C39.5976 25.8533 39.5009 25.8675 39.4065 25.8965C38.2441 26.2537 37.0328 26.4348 35.8062 26.4348H33.3346C26.5849 26.4348 21.0938 20.9436 21.0938 14.1939C21.0938 7.44433 26.585 1.95312 33.3346 1.95312H35.8062C42.5558 1.95312 48.0469 7.44433 48.0469 14.1939C48.0469 18.0739 46.2666 21.6401 43.1624 23.978Z" fill="#02B1DA"/>
<path d="M38.9698 10.6853C38.8289 8.6409 37.1809 6.99286 35.1363 6.85194C33.9773 6.77235 32.8713 7.16327 32.0247 7.9536C31.1897 8.73299 30.7109 9.83475 30.7109 10.9764C30.7109 11.5158 31.1482 11.953 31.6875 11.953C32.2268 11.953 32.6641 11.5158 32.6641 10.9764C32.6641 10.3652 32.9104 9.79871 33.3574 9.38143C33.8041 8.96454 34.3879 8.75819 35.0021 8.80057C36.0791 8.87479 36.9472 9.74286 37.0214 10.8197C37.0964 11.9073 36.3828 12.8684 35.3248 13.1052C34.4676 13.297 33.8689 14.0419 33.8689 14.9166V17.2628C33.8689 17.8021 34.3062 18.2393 34.8455 18.2393C35.3849 18.2393 35.8221 17.8021 35.822 17.2628V14.9946C37.7897 14.5192 39.11 12.7186 38.9698 10.6853Z" fill="#02B1DA"/>
<path d="M35.5303 20.4346C35.3486 20.2529 35.0967 20.1484 34.8398 20.1484C34.583 20.1484 34.3311 20.2529 34.1494 20.4346C33.9678 20.6162 33.8633 20.8682 33.8633 21.125C33.8633 21.3828 33.9679 21.6348 34.1494 21.8164C34.3311 21.998 34.583 22.1016 34.8398 22.1016C35.0967 22.1016 35.3486 21.998 35.5303 21.8164C35.7119 21.6338 35.8164 21.3828 35.8164 21.125C35.8164 20.8682 35.7118 20.6162 35.5303 20.4346Z" fill="#02B1DA"/>
<path d="M26.8555 30.2734H6.25C5.71074 30.2734 5.27344 30.7106 5.27344 31.25C5.27344 31.7894 5.71074 32.2266 6.25 32.2266H26.8555C27.3948 32.2266 27.832 31.7894 27.832 31.25C27.832 30.7106 27.3947 30.2734 26.8555 30.2734Z" fill="#02B1DA"/>
<path d="M27.5458 36.0283C27.3643 35.8467 27.1123 35.7422 26.8555 35.7422C26.5986 35.7422 26.3467 35.8467 26.165 36.0283C25.9833 36.21 25.8789 36.4619 25.8789 36.7188C25.8789 36.9756 25.9834 37.2275 26.165 37.4092C26.3467 37.5908 26.5986 37.6953 26.8555 37.6953C27.1123 37.6953 27.3643 37.5908 27.5458 37.4092C27.7275 37.2275 27.832 36.9766 27.832 36.7188C27.832 36.4619 27.7274 36.21 27.5458 36.0283Z" fill="#02B1DA"/>
<path d="M23.0144 35.7422H6.25C5.71074 35.7422 5.27344 36.1794 5.27344 36.7188C5.27344 37.2581 5.71074 37.6953 6.25 37.6953H23.0144C23.5537 37.6953 23.9909 37.2581 23.9909 36.7188C23.9909 36.1794 23.5536 35.7422 23.0144 35.7422Z" fill="#02B1DA"/>
<path d="M20.5078 24.8047H6.25C5.71074 24.8047 5.27344 25.2419 5.27344 25.7812C5.27344 26.3206 5.71074 26.7578 6.25 26.7578H20.5078C21.0472 26.7578 21.4844 26.3206 21.4844 25.7812C21.4844 25.2419 21.0471 24.8047 20.5078 24.8047Z" fill="#02B1DA"/>
</svg>
