<svg width="64" height="55" viewBox="0 0 64 55" fill="none" xmlns="http://www.w3.org/2000/svg">
<path d="M61.5042 31.5371C67.5148 24.3665 61.8055 16.7594 53.5405 9.20683C53.0595 10.8981 52.1396 12.43 50.8753 13.6453C49.611 14.8605 48.0479 15.7153 46.3466 16.1219C46.0651 16.119 45.7938 16.0153 45.5815 15.8292C45.3692 15.6432 45.2298 15.3871 45.1884 15.1069C45.147 14.8268 45.2062 14.5409 45.3556 14.3008C45.5049 14.0607 45.7344 13.882 46.003 13.7969C47.4169 13.3647 48.684 12.5464 49.6632 11.4329C50.6424 10.3195 51.2953 8.95456 51.5493 7.49004C48.347 4.72739 44.6336 2.62862 40.6224 1.31434C37.1519 4.37681 33.349 9.08847 36.6284 15.5733C36.7728 15.8494 36.8037 16.1716 36.7143 16.4703C36.6249 16.7691 36.4225 17.0207 36.1506 17.1707C35.8786 17.3208 35.559 17.3575 35.2605 17.2727C34.962 17.188 34.7085 16.9887 34.5546 16.7178C30.9419 9.66242 34.2212 4.51291 37.9083 0.587085C30.298 -0.871262 22.4202 0.407375 15.6519 4.19951C18.4573 4.35113 21.0951 5.59035 23.0115 7.65695C23.1239 7.76629 23.2136 7.8969 23.2756 8.04127C23.3376 8.18564 23.3706 8.34091 23.3727 8.49816C23.3749 8.6554 23.3461 8.81152 23.288 8.95752C23.2299 9.10353 23.1437 9.23654 23.0344 9.34892C22.925 9.46129 22.7946 9.5508 22.6508 9.6123C22.5069 9.67381 22.3523 9.70608 22.196 9.70728C22.0397 9.70848 21.8847 9.67858 21.7399 9.61929C21.5951 9.56 21.4634 9.4725 21.3524 9.36182C16.6183 4.30373 9.54997 6.76694 6.68058 12.4022C2.86083 19.2819 5.9397 23.0519 10.9234 23.9546C11.233 23.9991 11.5125 24.1651 11.7009 24.4162C11.8893 24.6673 11.9713 24.9831 11.929 25.2949C11.8868 25.6066 11.7236 25.8888 11.4753 26.08C11.2269 26.2711 10.9134 26.3557 10.6033 26.3152C10.39 26.2913 5.40065 25.5522 3.39779 21.6059C3.2224 21.2652 3.07572 20.9102 2.9593 20.5448C-1.22417 25.8621 -0.951593 30.0111 3.64667 34.8634C4.26984 35.5689 5.07294 36.0896 5.96906 36.3691C6.86518 36.6486 7.82022 36.6762 8.73083 36.4491C12.4564 35.5013 17.4962 33.4032 18.5318 30.7025C19.4842 28.3218 17.4305 28.0883 18.9821 26.7443C21.0072 25.8296 21.6411 29.3114 20.7599 31.537C19.9505 33.8442 16.7932 36.0722 14.0165 37.1524C14.6577 39.1738 16.0049 40.8933 17.8088 41.9928C21.5657 44.3296 26.5787 43.8527 28.7001 43.2804C28.9856 43.2008 29.2862 43.1929 29.5754 43.2574C29.8647 43.3218 30.1338 43.4566 30.3593 43.65C31.7696 44.8711 33.4531 45.7301 35.2657 46.1537C36.0386 46.2927 36.7296 46.7234 37.1974 47.3579L42.1393 54.4873C42.249 54.6445 42.3944 54.7731 42.5634 54.8623C42.7325 54.9514 42.9203 54.9987 43.1111 55H47.2472C47.5612 54.9991 47.8621 54.8731 48.0842 54.6498C48.3062 54.4264 48.4314 54.1237 48.4323 53.8078V48.9554C58.3564 46.5921 64.8316 41.8989 61.2911 32.9439C61.1832 32.7148 61.1459 32.4584 61.1838 32.2077C61.2218 31.9571 61.3334 31.7235 61.5042 31.5371ZM50.0085 23.4181L54.832 22.3093C55.1362 22.2442 55.4537 22.3019 55.716 22.47C55.9784 22.6382 56.1645 22.9032 56.2345 23.2081C56.3044 23.513 56.2525 23.8333 56.0899 24.1001C55.9273 24.3668 55.667 24.5586 55.3652 24.6342L50.5417 25.7429C50.4562 25.7621 50.3686 25.7701 50.281 25.7668C49.9928 25.7636 49.7156 25.6549 49.5014 25.4609C49.2871 25.2669 49.1505 25.0011 49.1171 24.7131C49.0837 24.4251 49.1558 24.1347 49.3199 23.8963C49.484 23.658 49.7288 23.4879 50.0085 23.4181ZM40.8239 29.6415C42.0746 27.3259 43.3021 22.3364 39.5675 20.7596C39.4272 20.6908 39.3019 20.595 39.1985 20.4774C39.0952 20.3598 39.016 20.2229 38.9653 20.0745C38.9147 19.9261 38.8937 19.7691 38.9035 19.6125C38.9133 19.4559 38.9537 19.3027 39.0225 19.1619C40.4957 16.9198 43.9994 21.2442 44.1776 22.7384C45.0192 25.6714 43.7867 28.9619 42.9808 30.6429C45.6397 32.4869 47.5892 35.1929 48.5034 38.3089C48.5563 38.4571 48.5796 38.6142 48.5719 38.7714C48.5643 38.9286 48.5259 39.0828 48.4588 39.225C48.3918 39.3672 48.2975 39.4947 48.1814 39.6002C48.0653 39.7056 47.9296 39.787 47.7822 39.8396C47.6347 39.8922 47.4784 39.915 47.3221 39.9066C47.1659 39.8983 47.0128 39.859 46.8717 39.791C46.7306 39.723 46.6043 39.6276 46.4999 39.5103C46.3956 39.3931 46.3152 39.2563 46.2636 39.1077C43.172 29.7561 35.653 30.6366 30.9518 33.4806C30.6863 33.6424 30.3685 33.6933 30.0662 33.6225C29.7638 33.5517 29.5011 33.3648 29.3339 33.1017C29.1668 32.8385 29.1086 32.5201 29.1718 32.2144C29.2349 31.9087 29.4145 31.6399 29.672 31.4656C29.9089 31.3225 35.396 27.8651 40.8239 29.6415ZM19.6102 20.1514C18.4194 20.0285 14.7216 20.0344 15.2726 17.9459C15.3773 17.6494 15.5943 17.4066 15.8763 17.2703C16.1582 17.1341 16.4823 17.1155 16.7778 17.2186C17.5785 17.5918 18.4505 17.7849 19.333 17.7841C20.2155 17.7834 21.0872 17.5889 21.8873 17.2143C22.6874 16.8396 23.3965 16.2939 23.9653 15.615C24.534 14.9362 24.9487 14.1407 25.1803 13.2841C25.2786 12.9892 25.4872 12.7445 25.7619 12.6018C26.0366 12.4591 26.3557 12.4296 26.6516 12.5195C26.9475 12.6095 27.197 12.8119 27.3471 13.0837C27.4972 13.3556 27.5362 13.6756 27.4557 13.9758C27.0282 15.2454 26.3602 16.4195 25.4884 17.4332C25.746 18.5863 26.3752 19.6216 27.278 20.3779C27.7889 20.7285 28.3665 20.9688 28.9743 21.0837C29.5821 21.1986 30.207 21.1856 30.8096 21.0456C30.9637 21.0201 31.1213 21.0256 31.2734 21.0616C31.4254 21.0976 31.5688 21.1634 31.6955 21.2554C31.8221 21.3473 31.9295 21.4636 32.0113 21.5974C32.0932 21.7312 32.148 21.8799 32.1725 22.0351C32.2195 22.3477 32.1428 22.6663 31.9589 22.9226C31.775 23.179 31.4985 23.3526 31.1888 23.4062C29.6083 23.737 27.9622 23.481 26.5548 22.6854C25.1474 21.8897 24.074 20.6083 23.5331 19.0782C22.3517 19.7997 20.9921 20.1717 19.6102 20.1514Z" fill="#02B1DA"/>
</svg>
