<svg width="60" height="63" viewBox="0 0 60 63" fill="none" xmlns="http://www.w3.org/2000/svg">
<path d="M27.9624 29.2506C26.193 28.4401 24.198 28.2652 22.3146 28.7556C22.2672 27.4748 21.7553 26.2551 20.8745 25.3241C17.1973 22.0457 11.5412 23.454 9.83766 25.9428C7.69441 29.1371 9.34375 31.5911 9.21882 34.8646C9.39001 37.3685 8.83531 39.8685 7.62123 42.065L1.11843 53.5182C1.00222 53.718 0.951654 53.9493 0.973856 54.1794C0.996059 54.4095 1.08991 54.6268 1.24219 54.8007L7.94755 62.6087C8.05446 62.7306 8.18584 62.8287 8.33316 62.8966C8.48048 62.9644 8.64042 63.0005 8.8026 63.0024C9.00225 63.0036 9.19851 62.9509 9.37075 62.8499C9.54299 62.7489 9.68485 62.6034 9.7814 62.4287L17.6568 48.5904C19.3418 45.6338 22.0268 43.3757 25.2285 42.2226C27.2533 41.5694 29.3313 40.9368 30.3025 39.061C31.1504 37.3192 31.3422 35.3301 30.8425 33.4583C30.7073 32.5864 30.3784 31.7558 29.88 31.0276C29.3816 30.2995 28.7263 29.6923 27.9624 29.2506Z" fill="#02B1DA"/>
<path d="M59.105 11.0579L57.2936 0.921124C57.2603 0.744724 57.1855 0.578787 57.0753 0.437034C56.9652 0.295281 56.8229 0.181785 56.6602 0.105929C56.4975 0.0300738 56.319 -0.00596135 56.1397 0.000803376C55.9603 0.0075681 55.7851 0.0569384 55.6285 0.144832L41.8015 8.05401C38.8511 9.75045 35.3891 10.3294 32.0473 9.68535L30.7422 9.43784C26.1782 7.89569 23.2584 12.0713 22.7656 14.3769C21.1327 18.504 24.3109 21.8106 27.7046 22.7584C24.9662 28.0014 31.5543 32.158 34.8599 31.9614C37.7465 32.1362 40.104 29.2503 40.6876 27.0899C41.2121 25.715 41.8796 24.399 42.6791 23.1636C43.7553 21.3407 45.2867 19.8288 47.1231 18.7758L58.5537 12.2392C58.7558 12.1228 58.9171 11.9469 59.0157 11.7356C59.1144 11.5242 59.1455 11.2876 59.105 11.0579Z" fill="#02B1DA"/>
<path d="M19.5704 13.9801C19.7181 13.9801 19.8644 13.9511 20.001 13.8945C20.1375 13.838 20.2615 13.7551 20.366 13.6507C20.4705 13.5462 20.5534 13.4221 20.6099 13.2856C20.6664 13.1491 20.6955 13.0028 20.6954 12.855V6.21783C20.6954 5.91945 20.5769 5.63329 20.3659 5.4223C20.1549 5.21131 19.8688 5.09277 19.5704 5.09277C19.272 5.09277 18.9858 5.21131 18.7748 5.4223C18.5638 5.63329 18.4453 5.91945 18.4453 6.21783V12.855C18.4453 13.0028 18.4743 13.1491 18.5309 13.2856C18.5874 13.4221 18.6703 13.5462 18.7748 13.6507C18.8792 13.7551 19.0033 13.838 19.1398 13.8945C19.2763 13.9511 19.4226 13.9801 19.5704 13.9801Z" fill="#02B1DA"/>
<path d="M13.9525 16.3593C14.1711 16.5569 14.4584 16.6608 14.7528 16.6489C15.0472 16.6369 15.3251 16.51 15.527 16.2954C15.7288 16.0807 15.8384 15.7955 15.8322 15.5009C15.826 15.2064 15.7046 14.926 15.4939 14.72L10.4971 10.022C10.2786 9.82441 9.99125 9.72043 9.69686 9.73237C9.40247 9.74432 9.12451 9.87124 8.92268 10.0859C8.72085 10.3005 8.61126 10.5858 8.61744 10.8803C8.62361 11.1749 8.74507 11.4553 8.95572 11.6613L13.9525 16.3593Z" fill="#02B1DA"/>
<path d="M5.40022 21.8116H12.2236C12.5182 21.8059 12.7988 21.6848 13.0051 21.4745C13.2114 21.2641 13.327 20.9812 13.327 20.6866C13.3269 20.3919 13.2114 20.109 13.0051 19.8987C12.7988 19.6883 12.5182 19.5673 12.2236 19.5615H5.40022C5.10563 19.5673 4.82505 19.6883 4.61874 19.8987C4.41244 20.1091 4.29688 20.3919 4.29688 20.6866C4.29688 20.9812 4.41244 21.2641 4.61874 21.4745C4.82505 21.6848 5.10563 21.8059 5.40022 21.8116Z" fill="#02B1DA"/>
<path d="M32.3243 39.8457C32.1765 39.8457 32.0302 39.8747 31.8937 39.9313C31.7572 39.9878 31.6331 40.0707 31.5287 40.1751C31.4242 40.2796 31.3413 40.4037 31.2848 40.5402C31.2283 40.6767 31.1992 40.823 31.1992 40.9708V47.7563C31.1992 48.0547 31.3178 48.3408 31.5287 48.5518C31.7397 48.7628 32.0259 48.8814 32.3243 48.8814C32.6227 48.8814 32.9088 48.7628 33.1198 48.5518C33.3308 48.3408 33.4493 48.0547 33.4493 47.7563V40.9708C33.4494 40.823 33.4203 40.6767 33.3638 40.5402C33.3073 40.4037 33.2244 40.2796 33.1199 40.1751C33.0154 40.0707 32.8914 39.9878 32.7549 39.9313C32.6184 39.8747 32.472 39.8457 32.3243 39.8457Z" fill="#02B1DA"/>
<path d="M37.9589 37.4096C37.7451 37.2068 37.4603 37.0959 37.1657 37.1007C36.871 37.1056 36.59 37.2258 36.383 37.4355C36.176 37.6453 36.0596 37.9278 36.0586 38.2225C36.0576 38.5172 36.1723 38.8005 36.3779 39.0116L41.4494 44.0194C41.6632 44.2221 41.948 44.3329 42.2425 44.328C42.5371 44.3231 42.818 44.2029 43.025 43.9932C43.2319 43.7835 43.3484 43.501 43.3494 43.2064C43.3504 42.9118 43.2359 42.6285 43.0304 42.4174L37.9589 37.4096Z" fill="#02B1DA"/>
<path d="M46.8645 32.0889H39.7049C39.4103 32.0946 39.1297 32.2157 38.9234 32.4261C38.7171 32.6364 38.6016 32.9193 38.6016 33.214C38.6016 33.5086 38.7171 33.7915 38.9235 34.0019C39.1298 34.2122 39.4104 34.3333 39.7049 34.339H46.8645C47.1591 34.3332 47.4397 34.2122 47.646 34.0018C47.8523 33.7915 47.9678 33.5086 47.9678 33.2139C47.9678 32.9193 47.8523 32.6364 47.646 32.426C47.4397 32.2157 47.1591 32.0946 46.8645 32.0889Z" fill="#02B1DA"/>
</svg>
