<svg width="48" height="62" viewBox="0 0 48 62" fill="none" xmlns="http://www.w3.org/2000/svg">
<path d="M43.6348 52.3357C43.4075 52.3368 43.1828 52.2864 42.9777 52.1883L35.8728 48.8231C35.6905 48.7364 35.5271 48.6147 35.3919 48.4648C35.2567 48.315 35.1524 48.14 35.0848 47.9498C35.0172 47.7597 34.9878 47.558 34.9981 47.3565C35.0085 47.1549 35.0584 46.9574 35.1451 46.7751C35.2318 46.5929 35.3535 46.4295 35.5034 46.2943C35.6532 46.1591 35.8282 46.0547 36.0184 45.9871C36.2085 45.9196 36.4102 45.8901 36.6117 45.9005C36.8133 45.9108 37.0108 45.9608 37.1931 46.0474L44.2857 49.4126C44.6006 49.5615 44.8554 49.813 45.0084 50.1258C45.1615 50.4387 45.2036 50.7942 45.1279 51.1342C45.0522 51.4741 44.8632 51.7782 44.5919 51.9965C44.3205 52.2148 43.9831 52.3344 43.6348 52.3357Z" fill="#02B1DA"/>
<path d="M38.9804 43.8252C38.6201 43.8233 38.2718 43.6948 37.9967 43.462C37.7216 43.2292 37.5371 42.9071 37.4756 42.552C37.4141 42.1969 37.4795 41.8315 37.6603 41.5197C37.8411 41.208 38.1259 40.9698 38.4646 40.8469L45.8336 38.2125C46.0231 38.1442 46.2242 38.1141 46.4253 38.1239C46.6265 38.1336 46.8237 38.1829 47.0057 38.2691C47.1878 38.3552 47.351 38.4765 47.486 38.6259C47.621 38.7753 47.7252 38.9499 47.7925 39.1397C47.9285 39.5241 47.9066 39.9467 47.7317 40.315C47.5567 40.6833 47.243 40.9673 46.8591 41.1048L39.4901 43.7392C39.3264 43.7968 39.154 43.8259 38.9804 43.8252Z" fill="#02B1DA"/>
<path d="M36.7198 61.5288C36.402 61.5281 36.0921 61.4292 35.8327 61.2456C35.5732 61.062 35.3769 60.8027 35.2705 60.5033L32.6361 53.1343C32.5684 52.9443 32.5387 52.7429 32.5488 52.5416C32.5589 52.3402 32.6085 52.1428 32.6949 51.9606C32.7813 51.7784 32.9028 51.615 33.0523 51.4797C33.2018 51.3445 33.3765 51.24 33.5665 51.1722C33.7564 51.1045 33.9578 51.0748 34.1591 51.0849C34.3605 51.095 34.5579 51.1447 34.7401 51.2311C34.9223 51.3175 35.0857 51.4389 35.221 51.5884C35.3562 51.738 35.4607 51.9127 35.5285 52.1026L38.1629 59.4716C38.244 59.703 38.2687 59.9505 38.2349 60.1934C38.2012 60.4363 38.11 60.6677 37.9688 60.8683C37.8277 61.0688 37.6408 61.2328 37.4235 61.3467C37.2063 61.4605 36.965 61.5208 36.7198 61.5226V61.5288Z" fill="#02B1DA"/>
<path d="M42.8413 19.4762C42.3318 13.963 39.7103 8.86029 35.5249 5.23558C31.3396 1.61086 25.9148 -0.25508 20.3853 0.0280972C14.8558 0.311274 9.65 2.72163 5.85687 6.75494C2.06374 10.7883 -0.0228723 16.1321 0.0335431 21.6685V48.4671C0.0304856 48.5162 0.0304856 48.5654 0.0335431 48.6145C0.831852 57.1441 5.97787 60.8962 10.5221 61.5103C11.0814 61.5906 11.6457 61.6317 12.2108 61.6331C14.8156 61.5917 17.3472 60.7647 19.4741 59.2602C21.6009 57.7558 23.2238 55.6441 24.1302 53.2017C24.6683 51.7391 25.3149 50.3186 26.0645 48.9523C28.57 44.6537 31.3579 41.2394 34.3055 38.869C37.291 36.6571 39.6484 33.7053 41.1452 30.3046C42.642 26.9039 43.2266 23.1718 42.8413 19.4762ZM22.9757 40.3551C20.9431 44.7028 17.7621 47.1469 14.2803 47.1469C13.8688 47.1448 13.4581 47.1099 13.0521 47.0424C12.1292 46.898 11.2587 46.5197 10.5235 45.9435C9.78822 45.3673 9.21272 44.6125 8.85178 43.751C8.44343 42.8052 8.28108 41.7715 8.37987 40.746C8.47865 39.7206 8.83535 38.7369 9.41674 37.8865C9.74519 37.4314 9.97633 36.9136 10.0957 36.3652C10.2151 35.8169 10.2202 35.2498 10.1107 34.6994C9.77905 33.1519 8.5386 31.629 6.61652 30.4376C6.42109 30.3441 6.24768 30.2102 6.10767 30.0449C5.96767 29.8795 5.86426 29.6864 5.80422 29.4783C5.74419 29.2701 5.7289 29.0516 5.75936 28.837C5.78982 28.6225 5.86534 28.4169 5.98095 28.2337C6.09657 28.0504 6.24966 27.8937 6.43015 27.7739C6.61065 27.6541 6.81447 27.5738 7.02822 27.5383C7.24196 27.5029 7.46078 27.5131 7.6703 27.5683C7.87981 27.6235 8.07528 27.7224 8.24384 27.8585C10.8721 29.5104 12.6038 31.7211 13.1074 34.0853C13.3025 35.0365 13.3007 36.0176 13.1022 36.9682C12.9036 37.9187 12.5125 38.8185 11.9529 39.612C11.6659 40.0382 11.4893 40.5289 11.4389 41.0402C11.3886 41.5515 11.466 42.0673 11.6643 42.5412C11.8238 42.9299 12.0802 43.2711 12.4092 43.5324C12.7382 43.7937 13.1287 43.9662 13.5434 44.0334C16.1041 44.451 18.5175 42.664 20.1693 39.1208C22.2818 34.0853 20.7834 30.5236 15.2567 27.6006C15.0706 27.5112 14.9045 27.3852 14.7682 27.2301C14.632 27.0751 14.5284 26.8941 14.4637 26.6981C14.399 26.5021 14.3744 26.295 14.3916 26.0893C14.4087 25.8836 14.4672 25.6835 14.5634 25.5009C14.6597 25.3183 14.7918 25.1569 14.9518 25.0266C15.1118 24.8962 15.2965 24.7994 15.4948 24.742C15.6931 24.6847 15.9009 24.6679 16.1058 24.6927C16.3108 24.7175 16.5086 24.7833 16.6875 24.8863C23.6266 28.5647 25.7514 33.7721 22.9757 40.3735V40.3551ZM27.2374 25.003C27.187 25.3692 27.0055 25.7048 26.7266 25.9475C26.4477 26.1903 26.0904 26.3238 25.7207 26.3233H25.5057C25.1027 26.2669 24.7386 26.0529 24.4933 25.7281C24.248 25.4034 24.1417 24.9946 24.1977 24.5916C24.7136 20.9807 23.5836 18.6534 20.6667 17.2533C20.2995 17.0774 20.0171 16.7628 19.8818 16.3787C19.7465 15.9946 19.7693 15.5726 19.9452 15.2053C20.1211 14.838 20.4357 14.5557 20.8197 14.4204C21.2038 14.2851 21.6259 14.3078 21.9932 14.4837C26.1198 16.4427 27.9375 20.0842 27.2374 25.003ZM32.623 29.1174C32.4823 29.3256 32.2931 29.4966 32.0717 29.6153C31.8502 29.7341 31.6031 29.7971 31.3518 29.799C31.0471 29.7994 30.7494 29.7074 30.4982 29.5349C30.3304 29.4229 30.1863 29.2789 30.0741 29.1112C29.962 28.9435 29.884 28.7552 29.8446 28.5573C29.8053 28.3594 29.8053 28.1557 29.8448 27.9578C29.8842 27.7599 29.9623 27.5718 30.0745 27.4041C30.8459 26.2547 31.378 24.9618 31.639 23.6024C31.9 22.243 31.8846 20.845 31.5937 19.4917C31.3028 18.1384 30.7424 16.8575 29.9459 15.7254C29.1494 14.5933 28.1331 13.6332 26.9575 12.9023C25.782 12.1714 24.4713 11.6847 23.1037 11.4712C21.736 11.2577 20.3394 11.3218 18.997 11.6596C17.6547 11.9975 16.3941 12.6022 15.2904 13.4376C14.1868 14.2731 13.2626 15.3222 12.5731 16.5225C12.3663 16.8751 12.0279 17.1311 11.6323 17.2342C11.2367 17.3372 10.8164 17.2789 10.4638 17.0721C10.1111 16.8653 9.85515 16.5268 9.75208 16.1312C9.64901 15.7357 9.70731 15.3153 9.91415 14.9627C11.0968 12.9317 12.7916 11.2463 14.8292 10.075C16.8669 8.90374 19.1762 8.28743 21.5265 8.28764C22.0435 8.2889 22.56 8.31759 23.074 8.37361C25.3498 8.64303 27.5184 9.49218 29.372 10.8398C31.2257 12.1873 32.7023 13.9882 33.6606 16.07C34.6189 18.1517 35.0267 20.4446 34.8451 22.7291C34.6634 25.0136 33.8982 27.2132 32.623 29.1174Z" fill="#02B1DA"/>
</svg>
