<svg width="30" height="30" viewBox="0 0 30 30" fill="none" xmlns="http://www.w3.org/2000/svg">
<path d="M15.0015 23.7891C13.2085 23.7891 11.3569 23.3438 9.49365 22.4707C8.03467 21.7852 6.56396 20.8359 5.12256 19.6465C2.69092 17.6367 1.19092 15.6445 1.12646 15.5625C0.874512 15.2285 0.874512 14.7715 1.12646 14.4375C1.19092 14.3555 2.69092 12.3633 5.12256 10.3535C6.56396 9.16406 8.03467 8.21484 9.49365 7.5293C11.3569 6.65625 13.2085 6.21094 15.0015 6.21094C16.7944 6.21094 18.646 6.65625 20.5093 7.5293C21.9683 8.21484 23.439 9.16406 24.8804 10.3535C27.312 12.3633 28.8179 14.3555 28.8765 14.4375C29.1284 14.7715 29.1284 15.2285 28.8765 15.5625C28.812 15.6445 27.312 17.6367 24.8804 19.6465C23.439 20.8359 21.9683 21.7852 20.5093 22.4707C18.646 23.3438 16.7944 23.7891 15.0015 23.7891ZM3.0835 15C4.5542 16.7402 9.41162 21.9141 15.0015 21.9141C20.603 21.9141 25.4487 16.7402 26.9194 15C25.4487 13.2598 20.5913 8.08594 15.0015 8.08594C9.3999 8.08594 4.5542 13.2598 3.0835 15Z" fill="white"/>
<path d="M15 19.2188C12.6738 19.2188 10.7812 17.3262 10.7812 15C10.7812 12.6738 12.6738 10.7812 15 10.7812C17.3262 10.7812 19.2188 12.6738 19.2188 15C19.2188 17.3262 17.3262 19.2188 15 19.2188ZM15 12.6562C13.7051 12.6562 12.6562 13.7051 12.6562 15C12.6562 16.2949 13.7051 17.3438 15 17.3438C16.2949 17.3438 17.3438 16.2949 17.3438 15C17.3438 13.7051 16.2949 12.6562 15 12.6562Z" fill="white"/>
</svg>
