<svg width="57" height="59" viewBox="0 0 57 59" fill="none" xmlns="http://www.w3.org/2000/svg">
<path d="M56.3046 25.2755C55.7043 24.3518 54.7944 23.7153 53.7365 23.474C54.4189 22.1439 54.3911 20.4842 53.5218 19.1469C52.9034 18.1948 51.9705 17.58 50.955 17.3472C51.1361 16.9952 51.27 16.6153 51.3499 16.2147C51.5717 15.1006 51.3552 13.9654 50.739 13.0178C50.1388 12.0937 49.2288 11.4572 48.171 11.2164C48.8534 9.88626 48.8256 8.22662 47.9563 6.88882C46.6855 4.93298 44.0891 4.39507 42.1695 5.69056L38.013 8.4958C35.7974 7.35066 33.4409 6.53816 30.9951 6.07542C30.2221 4.87942 29.3233 3.76758 28.317 2.77369L26.5975 1.07533C25.3382 -0.168843 23.3633 -0.355649 21.9012 0.631497C20.1715 1.7987 19.6962 4.18261 20.8416 5.94534C20.8866 6.01511 20.9308 6.08533 20.9745 6.15555C15.3379 7.3178 10.2008 10.3661 6.39859 14.8328C2.27259 19.6803 0 25.8885 0 32.3138C0 33.5453 0.0825995 34.7792 0.246032 35.9801C1.50534 45.3164 7.60799 53.3621 16.1718 56.978C19.3477 58.3194 22.7175 59 26.1862 59C31.6798 59 36.9383 57.2854 41.3938 54.0422C45.7526 50.8688 49.0137 46.4894 50.8252 41.3777C50.9944 40.9014 50.7519 40.3752 50.2845 40.2033C49.8168 40.0313 49.3008 40.278 49.1321 40.7547C47.4452 45.5149 44.4076 49.5931 40.347 52.5491C36.1989 55.5691 31.3021 57.1653 26.1862 57.1653C23.5413 57.1653 20.9586 56.7399 18.4868 55.9008L25.8112 50.9579C25.8117 50.9574 25.8121 50.9574 25.8126 50.957C25.813 50.957 25.813 50.9565 25.8134 50.9561L31.9006 46.8482H31.9011C32.4475 46.4791 32.8207 45.9155 32.9515 45.2605C33.0822 44.6056 32.955 43.9376 32.5928 43.3808L32.5124 43.2565L33.6948 42.4585C34.5385 41.889 35.5531 41.6658 36.5523 41.8292C37.9989 42.0659 39.468 41.7418 40.6889 40.9176L50.4965 34.2989C50.4294 35.1658 50.319 36.0278 50.1648 36.8754C50.0738 37.3737 50.3967 37.8527 50.8857 37.945C50.9409 37.9558 50.9966 37.9607 51.0509 37.9607C51.4763 37.9607 51.8544 37.6519 51.9348 37.2103C52.1843 35.8424 52.3279 34.4411 52.365 33.038L55.1287 31.1727C56.0585 30.5452 56.6933 29.586 56.915 28.4723C57.1372 27.3582 56.9203 26.223 56.3046 25.2755ZM36.2651 9.67515L33.5146 11.5315L32.9731 10.0447C32.7469 9.42443 32.4877 8.81629 32.2005 8.22122C33.5959 8.58177 34.9546 9.06792 36.2651 9.67515ZM7.75861 16.0351C11.4129 11.7422 16.3905 8.85636 21.8359 7.85571C22.7096 10.0128 22.9189 12.4228 22.3968 14.7198L20.202 24.3828C19.857 24.0074 19.4091 23.7486 18.9047 23.6442C18.2616 23.5105 17.6065 23.6406 17.0601 24.0097L10.8431 28.2049C10.8426 28.2049 10.8426 28.2049 10.8422 28.2054C10.8422 28.2054 10.8417 28.2054 10.8417 28.2058L1.87505 34.257C1.82602 33.6124 1.8004 32.9629 1.8004 32.3138C1.8004 26.3306 3.91663 20.5491 7.75861 16.0351ZM31.1873 44.8946C31.1524 45.0692 31.0525 45.22 30.9063 45.3186H30.9068L25.5603 48.9264L15.6374 33.8456C15.3604 33.4247 14.8012 33.3126 14.3882 33.5949C13.9757 33.8771 13.8652 34.4465 14.1422 34.8674L24.059 49.9397L16.4267 55.0906C8.84256 51.7101 3.41529 44.5709 2.11048 36.2637L11.0878 30.2251L12.1209 31.7961C12.295 32.0599 12.5794 32.2026 12.8696 32.2026C13.0419 32.2026 13.2164 32.1526 13.3701 32.0473C13.7831 31.7651 13.8935 31.1952 13.6165 30.7743L12.5905 29.2146L18.0544 25.5392C18.1997 25.4407 18.3742 25.4065 18.5456 25.442C18.717 25.4776 18.8649 25.5793 18.9617 25.7278L31.0919 44.394C31.1881 44.5421 31.2222 44.7199 31.1873 44.8946ZM55.1508 28.1068C55.0245 28.7406 54.6636 29.2862 54.1345 29.6431L50.9749 31.7754C50.974 31.7759 50.9732 31.7768 50.9718 31.7772L39.6946 39.3881C38.8509 39.9575 37.8363 40.1812 36.8372 40.0174C35.391 39.7811 33.9219 40.1047 32.7006 40.9289L31.5181 41.727L21.5832 26.4391L24.1513 15.1339C24.8125 12.2216 24.464 9.1539 23.2043 6.48145C23.1928 6.45354 23.1804 6.42653 23.1663 6.39997C22.9242 5.89492 22.6495 5.40472 22.3425 4.93208C21.7453 4.01291 21.9931 2.77009 22.8955 2.16105C23.6579 1.64655 24.688 1.74378 25.3443 2.39242L27.0639 4.09123C28.924 5.92913 30.3838 8.20861 31.2849 10.6835L32.2213 13.2542C32.2231 13.2591 32.2248 13.2632 32.2266 13.2677C32.2288 13.2735 32.2315 13.2798 32.2337 13.2857C32.2403 13.3014 32.2465 13.3158 32.2531 13.328C32.2712 13.3667 32.2911 13.405 32.3149 13.4414C32.5897 13.8641 33.148 13.9798 33.5623 13.6998L43.1637 7.22057C44.2556 6.4837 45.7323 6.78934 46.4554 7.90207C47.1784 9.0148 46.8785 10.5196 45.7866 11.2565L44.9531 11.8191C44.9531 11.8191 44.9527 11.8191 44.9522 11.8196L43.0931 13.0746C43.0904 13.0764 43.0887 13.0782 43.086 13.0795C43.0754 13.0872 43.0652 13.0944 43.0569 13.1016C42.6726 13.3892 42.5732 13.9361 42.8395 14.3457C43.1138 14.7684 43.6726 14.8841 44.0874 14.6041L45.9478 13.3482C46.4766 12.9922 47.1095 12.8666 47.731 12.9953C48.3525 13.1241 48.8883 13.4918 49.2381 14.0311C49.5884 14.5699 49.7121 15.2159 49.5857 15.8492C49.4594 16.483 49.0985 17.0285 48.5694 17.3855L45.8758 19.2036C45.4611 19.4831 45.3476 20.0521 45.6223 20.4748C45.7954 20.7413 46.0817 20.8858 46.3736 20.8858C46.5441 20.8858 46.7169 20.8362 46.8697 20.7332L47.2867 20.4518L48.7293 19.4782C49.8216 18.7413 51.2978 19.047 52.0209 20.1597C52.744 21.2729 52.444 22.7772 51.3521 23.5145L50.0067 24.4225C49.9996 24.427 49.9926 24.4319 49.9855 24.4369L48.6586 25.3322C48.2438 25.6117 48.1303 26.1811 48.4051 26.6038C48.5782 26.8703 48.8644 27.0148 49.1564 27.0148C49.3269 27.0148 49.4996 26.9653 49.6524 26.8622L50.0694 26.5809C50.0694 26.5809 50.0694 26.5804 50.0699 26.5804L51.5125 25.6072C52.0412 25.2503 52.6746 25.1242 53.2965 25.2534C53.9185 25.3817 54.4538 25.7499 54.8041 26.2887C55.1539 26.8275 55.2772 27.4735 55.1508 28.1068Z" fill="#02B1DA"/>
</svg>
