<svg width="187" height="131" viewBox="0 0 187 131" fill="none" xmlns="http://www.w3.org/2000/svg">
<path d="M98.3235 122.086C94.1746 122.086 92.8656 120.2 92.7769 117.716L95.2618 117.272C95.3727 119.047 96.4155 120.023 98.5676 120.023C100.32 120.023 101.163 119.424 101.341 118.425C101.541 117.205 100.942 116.628 98.5232 116.118C94.9733 115.452 93.9971 113.922 94.3965 111.592C94.7515 109.529 96.5708 108.197 99.7435 108.197C103.382 108.197 104.491 109.906 104.669 112.124L102.095 112.613C101.984 111.082 101.407 110.216 99.455 110.216C97.8354 110.216 96.9923 110.771 96.837 111.747C96.6152 112.768 97.1033 113.522 99.6991 114.055C103.471 114.809 104.203 116.495 103.848 118.603C103.471 120.733 101.718 122.086 98.3235 122.086ZM114.974 121.798H107.941H105.412L107.763 108.486H117.348L116.949 110.682H109.893L109.317 113.966H115.728L115.351 116.14H108.939L108.318 119.601H115.373L114.974 121.798ZM123.273 116.806H120.788L119.901 121.798H117.372L119.701 108.486H125.093C128.376 108.486 129.907 110.105 129.375 113.056C129.042 114.92 127.799 116.118 125.869 116.584L128.665 121.554L128.62 121.798H125.714L123.273 116.806ZM124.715 110.616H121.876L121.143 114.676H123.983C125.692 114.676 126.712 114.077 126.956 112.724C127.2 111.281 126.49 110.616 124.715 110.616ZM135.368 119.601H135.922C136.566 118.27 137.298 116.761 138.008 115.408L141.58 108.486H144.287L136.987 121.798H133.615L131.041 108.486H133.637L134.769 115.408C135.013 116.761 135.213 118.27 135.368 119.601ZM148.034 108.486L145.683 121.798H143.153L145.505 108.486H148.034ZM154.432 122.086C150.128 122.086 148.175 119.158 148.93 114.742C149.662 110.594 152.302 108.197 156.185 108.197C159.823 108.197 161.598 110.283 161.621 113.389L159.158 113.7C159.069 111.503 158.159 110.416 155.941 110.416C153.345 110.416 151.858 112.302 151.392 114.987C150.882 117.982 151.792 119.89 154.565 119.89C156.784 119.89 157.938 118.67 158.736 116.473L161.088 116.983C160.112 120.178 158.004 122.086 154.432 122.086ZM171.827 121.798H164.794H162.265L164.617 108.486H174.201L173.802 110.682H166.747L166.17 113.966H172.582L172.205 116.14H165.793L165.171 119.601H172.227L171.827 121.798Z" fill="white"/>
<path d="M50.9813 10.6182L26.0195 22.1913L29.622 38.6718L47.5207 30.1337H47.8044V99.7147C48.7688 99.2892 49.7048 98.8353 50.6693 98.3815C51.7755 97.8993 52.9102 97.4454 54.0448 96.9632C56.314 96.0271 58.64 95.006 61.0227 94.0415C63.6608 93.0488 66.3271 92.0276 69.0502 91.0348V10.6182H50.9813Z" fill="white"/>
<path d="M119.907 9.02837C95.6256 9.02837 84.2227 30.4161 84.2227 57.7038C84.2794 67.6318 85.8111 76.879 88.9597 84.5945C89.8107 84.3392 90.69 84.0839 91.5694 83.8286C94.2074 83.1194 96.8737 82.4387 99.5401 81.7295C100.845 81.3891 102.206 81.0488 103.511 80.7084C104.844 80.3963 106.178 80.1127 107.482 79.8007C107.965 79.6872 108.475 79.5737 108.958 79.4603C107.142 74.2694 106.178 67.0361 106.178 57.7038C106.178 35.7488 111.681 25.6223 119.595 25.6223C128.416 25.6223 132.898 36.5998 132.898 57.3918C132.898 64.5116 132.388 70.4116 131.395 75.1487C133.607 74.8083 135.763 74.4963 137.89 74.1559C142.628 73.4468 147.109 73.0213 151.251 72.5107C152.073 72.4256 152.839 72.3405 153.633 72.2838C154.456 67.5751 154.853 62.4976 154.853 57.1081C154.853 31.3805 144.868 9 119.907 9V9.02837Z" fill="white"/>
<path d="M176.415 73.6729V73.843C131.852 78.0128 89.9844 90.749 59.0091 106.464C58.1581 106.662 57.3355 106.861 56.4845 107.059C56.0591 107.173 55.6052 107.258 55.1797 107.371C54.4706 107.541 53.7331 107.712 53.0239 107.91C51.8893 108.222 50.7831 108.534 49.6768 108.846C47.4926 109.47 45.3368 110.038 43.2945 110.69C41.2522 111.371 39.295 112.023 37.3945 112.647C35.494 113.243 33.7069 113.952 32.005 114.604C30.303 115.257 28.6862 115.881 27.1828 116.477C24.2044 117.838 21.6232 119.001 19.4957 119.966C15.6096 122.036 13.2553 123.256 13 123.398C13.312 123.171 15.3827 121.582 18.8433 118.944C20.8289 117.64 23.24 116.023 25.9915 114.179C27.4098 113.356 28.9415 112.449 30.53 111.513C32.1468 110.577 33.8204 109.555 35.6358 108.648C37.4512 107.683 39.3517 106.69 41.2806 105.669C43.2378 104.677 45.3085 103.769 47.4359 102.748C47.5494 102.691 47.6912 102.634 47.8047 102.577C48.7691 102.152 49.7052 101.698 50.6696 101.244C51.7758 100.762 52.9105 100.308 54.0451 99.826C56.3144 98.8899 58.6403 97.8687 61.0231 96.9043C63.6611 95.9115 66.3274 94.8904 69.0505 93.8976C71.2914 93.075 73.589 92.2523 75.8867 91.5148C80.1415 90.0115 84.5098 88.7634 88.9349 87.4586C89.7858 87.2033 90.6652 86.948 91.5445 86.6927C94.1825 85.9835 96.8489 85.3028 99.5152 84.5936C100.82 84.2532 102.182 83.9129 103.486 83.5725C104.82 83.2604 106.153 82.9768 107.458 82.6648C107.94 82.5513 108.45 82.4378 108.933 82.3244C111.088 81.8422 113.244 81.3883 115.343 80.9061C117.953 80.4239 120.534 79.9133 123.087 79.4594C125.895 78.8921 128.647 78.4383 131.37 78.0412C133.582 77.7008 135.738 77.3887 137.866 77.0484C142.603 76.3392 147.084 75.9137 151.226 75.4032C152.048 75.3181 152.814 75.233 153.609 75.1762C156.842 74.8642 159.849 74.6656 162.572 74.4104C165.976 74.0983 168.926 74.0132 171.365 73.8998C173.465 73.8147 175.11 73.7296 176.386 73.6729H176.415Z" fill="#FFFF00"/>
<path d="M176.416 73.8155V101.444C175.253 101.302 173.268 101.075 170.544 100.734C168.304 100.479 165.58 100.082 162.403 99.8835C159.255 99.6566 155.709 99.2878 151.795 99.0609C149.128 98.9758 146.292 98.8056 143.342 98.6638C141.98 98.6071 140.619 98.5503 139.172 98.5503C134.69 98.5503 129.925 98.3518 125.046 98.5503C122.578 98.6071 120.082 98.6638 117.557 98.7205C115.033 98.8907 112.48 99.0325 109.899 99.146C108.594 99.2027 107.289 99.2878 106.013 99.3729C104.708 99.4864 103.403 99.5998 102.126 99.7133C100.481 99.8835 98.8077 100.025 97.1625 100.167C96.1981 100.252 95.2336 100.337 94.2692 100.422C89.0499 101.103 83.7739 101.642 78.6681 102.55C75.406 103.032 72.2291 103.628 69.0805 104.252C67.2651 104.621 65.4213 104.989 63.6343 105.33C62.0742 105.67 60.5424 106.039 59.0391 106.408C90.0144 90.693 131.854 77.9569 176.444 73.7871L176.416 73.8155Z" fill="#FEA621"/>
<path d="M124.168 91.4891V94H122.715V91.4763L119.885 86.4927V86.3525H121.466L123.352 90.2527H123.556L125.455 86.3525H126.997V86.4927L124.168 91.4891ZM133.154 94H129.101H127.648V86.3525H133.167V87.6143H129.101V89.5007H132.785V90.7498H129.101V92.7382H133.154V94ZM139.045 92.0499H135.795L135.132 94H133.628L136.47 86.3525H138.433L141.276 94H139.721L139.045 92.0499ZM137.605 87.6143H137.273C137.031 88.4046 136.776 89.2076 136.496 90.0233L136.165 90.9665H138.675L138.357 90.0233C138.076 89.2076 137.822 88.4046 137.605 87.6143ZM144.855 91.1322H143.428V94H141.975V86.3525H145.187C147.111 86.3525 148.003 87.1555 148.003 88.6722C148.003 89.8831 147.392 90.6606 146.308 90.9792L148.45 93.8598V94H146.754L144.855 91.1322ZM145.085 87.5761H143.428V89.9086H145.059C146.066 89.9086 146.576 89.5135 146.576 88.7105C146.576 87.933 146.168 87.5761 145.085 87.5761ZM152.225 94.1657C149.906 94.1402 149.052 93.095 148.848 91.6675L150.237 91.3743C150.428 92.445 151.117 92.9803 152.276 92.9803C153.347 92.9803 153.819 92.598 153.819 91.9734C153.819 91.3234 153.385 90.992 151.894 90.7371C149.791 90.4057 149.141 89.5899 149.141 88.3918C149.141 87.028 150.097 86.1868 152.073 86.1868C154.035 86.1868 154.838 87.1172 155.093 88.4428L153.653 88.7232C153.449 87.8183 153.067 87.3467 151.996 87.3467C151.027 87.3467 150.568 87.7035 150.568 88.3153C150.568 88.8634 150.862 89.233 152.468 89.5389C154.762 89.9468 155.272 90.8008 155.272 91.8842C155.272 93.2735 154.367 94.1657 152.225 94.1657ZM162.307 94.1657C159.847 94.1657 158.483 92.5725 158.483 90.1507C158.483 87.7545 159.923 86.1868 162.307 86.1868C164.69 86.1868 166.13 87.7545 166.13 90.1507C166.13 92.5725 164.754 94.1657 162.307 94.1657ZM162.294 92.9039C163.964 92.9039 164.677 91.8205 164.677 90.1507C164.677 88.532 163.938 87.4614 162.307 87.4614C160.662 87.4614 159.923 88.5575 159.923 90.1507C159.923 91.8205 160.65 92.9039 162.294 92.9039ZM168.708 91.2341V94H167.255V86.3525H172.532V87.6908H168.708V89.9723H172.162V91.2341H168.708Z" fill="black"/>
<path d="M154.564 16.2994C154.564 10.3792 152.334 8.14969 146.414 8.14969C152.334 8.14969 154.564 5.92016 154.564 0C154.564 5.92016 156.793 8.14969 162.713 8.14969C156.793 8.14969 154.564 10.3792 154.564 16.2994Z" fill="#5BD8F6"/>
<path d="M171.775 40.5426C171.775 29.9686 167.781 25.9749 157.207 25.9749C167.781 25.9749 171.775 21.9921 171.775 11.4072C171.775 21.9813 175.768 25.9749 186.342 25.9749C175.768 25.9749 171.775 29.9686 171.775 40.5426Z" fill="#5BD8F6"/>
<path d="M31.78 71.2334C31.78 77.1536 34.0095 79.3831 39.9297 79.3831C34.0095 79.3831 31.78 81.6126 31.78 87.5328C31.78 81.6126 29.5505 79.3831 23.6303 79.3831C29.5505 79.3831 31.78 77.1536 31.78 71.2334Z" fill="#5BD8F6"/>
<path d="M14.569 47C14.569 57.574 18.5627 61.5677 29.1367 61.5677C18.5627 61.5677 14.569 65.5506 14.569 76.1354C14.569 65.5614 10.5753 61.5677 0.00129509 61.5677C10.5753 61.5677 14.569 57.574 14.569 47Z" fill="#5BD8F6"/>
<path d="M76.1497 123.299C76.1497 117.379 73.9202 115.15 68 115.15C73.9202 115.15 76.1497 112.92 76.1497 107C76.1497 112.92 78.3792 115.15 84.2994 115.15C78.3792 115.15 76.1497 117.379 76.1497 123.299Z" fill="#5BD8F6"/>
</svg>
