<svg width="22" height="22" viewBox="0 0 22 22" fill="none" xmlns="http://www.w3.org/2000/svg">
<g clip-path="url(#clip0_1274_758)">
<path d="M20.7782 6.31921C20.78 6.07884 20.7146 5.84274 20.5893 5.63757C20.4641 5.4324 20.284 5.26633 20.0693 5.1581C19.8659 5.04884 19.6356 4.99947 19.4052 5.01569C19.1749 5.03191 18.9538 5.11307 18.7677 5.24977L15.8893 7.08921V4.88921C15.8893 4.56506 15.7606 4.25418 15.5313 4.02497C15.3021 3.79576 14.9913 3.66699 14.6671 3.66699H3.6671C3.01879 3.66699 2.39704 3.92453 1.93862 4.38295C1.4802 4.84138 1.22266 5.46313 1.22266 6.11144V15.8892C1.22266 16.5375 1.4802 17.1593 1.93862 17.6177C2.39704 18.0761 3.01879 18.3337 3.6671 18.3337H14.6671C14.9913 18.3337 15.3021 18.2049 15.5313 17.9757C15.7606 17.7465 15.8893 17.4356 15.8893 17.1114V14.9114L18.7249 16.7448C18.9146 16.89 19.1415 16.9786 19.3794 17.0002C19.6174 17.0218 19.8566 16.9757 20.0693 16.867C20.2878 16.757 20.4704 16.5871 20.5959 16.3771C20.7214 16.1672 20.7847 15.9259 20.7782 15.6814V6.31921ZM19.5132 15.7487C19.4765 15.7487 19.446 15.7487 19.3971 15.712L14.6671 12.6931V17.1114H3.6671C3.34295 17.1114 3.03207 16.9827 2.80286 16.7535C2.57365 16.5242 2.44488 16.2134 2.44488 15.8892V6.11144C2.44488 5.78728 2.57365 5.47641 2.80286 5.2472C3.03207 5.01798 3.34295 4.88921 3.6671 4.88921H14.6671V9.30755L19.4338 6.25199C19.4453 6.24355 19.4592 6.239 19.4735 6.239C19.4878 6.239 19.5017 6.24355 19.5132 6.25199C19.5266 6.25717 19.5379 6.26649 19.5456 6.27858C19.5533 6.29068 19.557 6.30491 19.556 6.31921V15.6814C19.557 15.6957 19.5533 15.71 19.5456 15.7221C19.5379 15.7342 19.5266 15.7435 19.5132 15.7487Z" fill="white"/>
</g>
<defs>
<clipPath id="clip0_1274_758">
<rect width="22" height="22" fill="white"/>
</clipPath>
</defs>
</svg>
