<svg width="24" height="24" viewBox="0 0 24 24" fill="none" xmlns="http://www.w3.org/2000/svg">
<g clip-path="url(#clip0_515_814)">
<path d="M21.8468 7.55793C21.8487 7.30663 21.7803 7.0598 21.6493 6.8453C21.5184 6.63081 21.3301 6.45719 21.1057 6.34404C20.893 6.22982 20.6522 6.1782 20.4114 6.19516C20.1706 6.21212 19.9394 6.29697 19.7448 6.43988L16.7357 8.36293V6.06293C16.7357 5.72405 16.6011 5.39904 16.3614 5.15941C16.1218 4.91978 15.7968 4.78516 15.4579 4.78516H3.9579C3.28012 4.78516 2.63011 5.0544 2.15085 5.53366C1.67159 6.01292 1.40234 6.66294 1.40234 7.34071V17.5629C1.40234 18.2407 1.67159 18.8907 2.15085 19.37C2.63011 19.8492 3.28012 20.1185 3.9579 20.1185H15.4579C15.7968 20.1185 16.1218 19.9839 16.3614 19.7442C16.6011 19.5046 16.7357 19.1796 16.7357 18.8407V16.5407L19.7001 18.4574C19.8984 18.6092 20.1357 18.7018 20.3844 18.7244C20.6332 18.747 20.8832 18.6988 21.1057 18.5852C21.334 18.4701 21.525 18.2925 21.6562 18.073C21.7874 17.8536 21.8535 17.6013 21.8468 17.3457V7.55793ZM20.5243 17.416C20.486 17.416 20.454 17.416 20.4029 17.3777L15.4579 14.2215V18.8407H3.9579C3.61901 18.8407 3.294 18.7061 3.05437 18.4665C2.81474 18.2268 2.68012 17.9018 2.68012 17.5629V7.34071C2.68012 7.00182 2.81474 6.67682 3.05437 6.43719C3.294 6.19756 3.61901 6.06293 3.9579 6.06293H15.4579V10.6821L20.4412 7.48766C20.4533 7.47883 20.4678 7.47407 20.4828 7.47407C20.4977 7.47407 20.5122 7.47883 20.5243 7.48766C20.5383 7.49307 20.5501 7.50281 20.5582 7.51546C20.5662 7.5281 20.57 7.54298 20.569 7.55793V17.3457C20.57 17.3607 20.5662 17.3755 20.5582 17.3882C20.5501 17.4008 20.5383 17.4106 20.5243 17.416Z" fill="white"/>
</g>
<defs>
<clipPath id="clip0_515_814">
<rect width="23" height="23" fill="white" transform="translate(0.125 0.952148)"/>
</clipPath>
</defs>
</svg>
