<svg width="21" height="21" viewBox="0 0 21 21" fill="none" xmlns="http://www.w3.org/2000/svg">
<path d="M9.89265 0.191112C4.62924 0.360896 0.282219 4.58172 0.018191 9.79069C-0.0781692 11.5917 0.314328 13.3853 1.15488 14.9852L0.0121845 20.0524C0.00108389 20.1053 0.00343235 20.16 0.0190176 20.2117C0.0346029 20.2634 0.0629401 20.3104 0.101466 20.3486C0.139991 20.3867 0.187492 20.4148 0.239698 20.4302C0.291905 20.4457 0.347173 20.448 0.400513 20.437L5.51819 19.3054C7.12007 20.1324 8.91561 20.5215 10.7199 20.4327C15.9713 20.1925 20.248 15.919 20.4512 10.7169C20.5071 9.32569 20.2728 7.93804 19.7629 6.64056C19.253 5.34309 18.4785 4.16365 17.4876 3.1759C16.4968 2.18816 15.311 1.41331 14.0042 0.899758C12.6974 0.386203 11.2978 0.144966 9.89265 0.191112ZM10.2355 18.3486C8.80104 18.3508 7.392 17.9733 6.15425 17.2552C6.04195 17.1924 5.93224 17.1262 5.8268 17.0557L2.55559 17.9191L3.42655 14.6813C2.44678 13.1824 1.99935 11.4028 2.15495 9.6239C2.31055 7.84499 3.06032 6.16814 4.28577 4.85835C5.51121 3.54856 7.14244 2.68052 8.92171 2.39139C10.701 2.10226 12.5268 2.40854 14.1107 3.26182C15.6945 4.1151 16.9461 5.46673 17.6676 7.10312C18.3891 8.7395 18.5394 10.5673 18.0947 12.2978C17.6501 14.0282 16.6358 15.5625 15.2122 16.6583C13.7886 17.7541 12.0369 18.3489 10.2338 18.3486H10.2355Z" fill="#151515"/>
<path d="M15.0421 13.8513C14.89 14.083 14.7132 14.2978 14.5149 14.4922C14.2596 14.7469 13.9501 14.9419 13.609 15.0631C13.2679 15.1842 12.9038 15.2285 12.5433 15.1926C11.2309 15.0602 9.37151 14.3437 7.76506 12.7588C6.15861 11.1738 5.43768 9.32827 5.30481 8.02773C5.26919 7.67071 5.31418 7.31032 5.43649 6.97264C5.5588 6.63495 5.75538 6.32842 6.01202 6.07521C6.21006 5.8797 6.42682 5.70372 6.65924 5.54973C6.74967 5.48807 6.8533 5.44803 6.96201 5.43275C7.07072 5.41748 7.18153 5.42738 7.28571 5.46169C7.3899 5.496 7.48463 5.55378 7.56245 5.63048C7.64027 5.70719 7.69907 5.80072 7.73421 5.90373L8.2717 7.50055C8.42086 7.93859 8.35313 8.21534 8.16283 8.4004L7.73421 8.82486C7.63116 8.9267 7.56643 9.06043 7.55084 9.20377C7.53524 9.34711 7.56971 9.49142 7.64849 9.61266C7.88594 9.98024 8.33428 10.5685 9.15122 11.381C9.96816 12.1934 10.5656 12.6348 10.9377 12.87C11.0602 12.9478 11.2059 12.9819 11.3506 12.9664C11.4953 12.951 11.6303 12.887 11.7332 12.7851L12.1618 12.3606C12.3495 12.1713 12.629 12.1059 13.0713 12.252L14.6838 12.7842C14.7886 12.8184 14.8839 12.8763 14.9621 12.9535C15.0403 13.0306 15.0991 13.1248 15.1339 13.2285C15.1688 13.3322 15.1786 13.4426 15.1626 13.5507C15.1467 13.6589 15.1054 13.7618 15.0421 13.8513Z" fill="#151515"/>
</svg>
